<svg width="2000" height="1000" viewBox="0 0 2000 1000" xmlns="http://www.w3.org/2000/svg">
<rect x="0" y="0" width="2000" height="1000" opacity="1" fill="#FFFFFF" stroke="none"/>
<line opacity="0.1" stroke="#000000" stroke-width="1" x1="190" y1="899" x2="190" y2="40"/>
<line opacity="0.1" stroke="#000000" stroke-width="1" x1="213" y1="899" x2="213" y2="40"/>
<line opacity="0.1" stroke="#000000" stroke-width="1" x1="236" y1="899" x2="236" y2="40"/>
<line opacity="0.1" stroke="#000000" stroke-width="1" x1="260" y1="899" x2="260" y2="40"/>
<line opacity="0.1" stroke="#000000" stroke-width="1" x1="283" y1="899" x2="283" y2="40"/>
<line opacity="0.1" stroke="#000000" stroke-width="1" x1="306" y1="899" x2="306" y2="40"/>
<line opacity="0.1" stroke="#000000" stroke-width="1" x1="330" y1="899" x2="330" y2="40"/>
<line opacity="0.1" stroke="#000000" stroke-width="1" x1="353" y1="899" x2="353" y2="40"/>
<line opacity="0.1" stroke="#000000" stroke-width="1" x1="377" y1="899" x2="377" y2="40"/>
<line opacity="0.1" stroke="#000000" stroke-width="1" x1="400" y1="899" x2="400" y2="40"/>
<line opacity="0.1" stroke="#000000" stroke-width="1" x1="423" y1="899" x2="423" y2="40"/>
<line opacity="0.1" stroke="#000000" stroke-width="1" x1="447" y1="899" x2="447" y2="40"/>
<line opacity="0.1" stroke="#000000" stroke-width="1" x1="470" y1="899" x2="470" y2="40"/>
<line opacity="0.1" stroke="#000000" stroke-width="1" x1="494" y1="899" x2="494" y2="40"/>
<line opacity="0.1" stroke="#000000" stroke-width="1" x1="517" y1="899" x2="517" y2="40"/>
<line opacity="0.1" stroke="#000000" stroke-width="1" x1="540" y1="899" x2="540" y2="40"/>
<line opacity="0.1" stroke="#000000" stroke-width="1" x1="564" y1="899" x2="564" y2="40"/>
<line opacity="0.1" stroke="#000000" stroke-width="1" x1="587" y1="899" x2="587" y2="40"/>
<line opacity="0.1" stroke="#000000" stroke-width="1" x1="611" y1="899" x2="611" y2="40"/>
<line opacity="0.1" stroke="#000000" stroke-width="1" x1="634" y1="899" x2="634" y2="40"/>
<line opacity="0.1" stroke="#000000" stroke-width="1" x1="657" y1="899" x2="657" y2="40"/>
<line opacity="0.1" stroke="#000000" stroke-width="1" x1="681" y1="899" x2="681" y2="40"/>
<line opacity="0.1" stroke="#000000" stroke-width="1" x1="704" y1="899" x2="704" y2="40"/>
<line opacity="0.1" stroke="#000000" stroke-width="1" x1="728" y1="899" x2="728" y2="40"/>
<line opacity="0.1" stroke="#000000" stroke-width="1" x1="751" y1="899" x2="751" y2="40"/>
<line opacity="0.1" stroke="#000000" stroke-width="1" x1="774" y1="899" x2="774" y2="40"/>
<line opacity="0.1" stroke="#000000" stroke-width="1" x1="798" y1="899" x2="798" y2="40"/>
<line opacity="0.1" stroke="#000000" stroke-width="1" x1="821" y1="899" x2="821" y2="40"/>
<line opacity="0.1" stroke="#000000" stroke-width="1" x1="844" y1="899" x2="844" y2="40"/>
<line opacity="0.1" stroke="#000000" stroke-width="1" x1="868" y1="899" x2="868" y2="40"/>
<line opacity="0.1" stroke="#000000" stroke-width="1" x1="891" y1="899" x2="891" y2="40"/>
<line opacity="0.1" stroke="#000000" stroke-width="1" x1="915" y1="899" x2="915" y2="40"/>
<line opacity="0.1" stroke="#000000" stroke-width="1" x1="938" y1="899" x2="938" y2="40"/>
<line opacity="0.1" stroke="#000000" stroke-width="1" x1="961" y1="899" x2="961" y2="40"/>
<line opacity="0.1" stroke="#000000" stroke-width="1" x1="985" y1="899" x2="985" y2="40"/>
<line opacity="0.1" stroke="#000000" stroke-width="1" x1="1008" y1="899" x2="1008" y2="40"/>
<line opacity="0.1" stroke="#000000" stroke-width="1" x1="1032" y1="899" x2="1032" y2="40"/>
<line opacity="0.1" stroke="#000000" stroke-width="1" x1="1055" y1="899" x2="1055" y2="40"/>
<line opacity="0.1" stroke="#000000" stroke-width="1" x1="1078" y1="899" x2="1078" y2="40"/>
<line opacity="0.1" stroke="#000000" stroke-width="1" x1="1102" y1="899" x2="1102" y2="40"/>
<line opacity="0.1" stroke="#000000" stroke-width="1" x1="1125" y1="899" x2="1125" y2="40"/>
<line opacity="0.1" stroke="#000000" stroke-width="1" x1="1149" y1="899" x2="1149" y2="40"/>
<line opacity="0.1" stroke="#000000" stroke-width="1" x1="1172" y1="899" x2="1172" y2="40"/>
<line opacity="0.1" stroke="#000000" stroke-width="1" x1="1195" y1="899" x2="1195" y2="40"/>
<line opacity="0.1" stroke="#000000" stroke-width="1" x1="1219" y1="899" x2="1219" y2="40"/>
<line opacity="0.1" stroke="#000000" stroke-width="1" x1="1242" y1="899" x2="1242" y2="40"/>
<line opacity="0.1" stroke="#000000" stroke-width="1" x1="1266" y1="899" x2="1266" y2="40"/>
<line opacity="0.1" stroke="#000000" stroke-width="1" x1="1289" y1="899" x2="1289" y2="40"/>
<line opacity="0.1" stroke="#000000" stroke-width="1" x1="1312" y1="899" x2="1312" y2="40"/>
<line opacity="0.1" stroke="#000000" stroke-width="1" x1="1336" y1="899" x2="1336" y2="40"/>
<line opacity="0.1" stroke="#000000" stroke-width="1" x1="1359" y1="899" x2="1359" y2="40"/>
<line opacity="0.1" stroke="#000000" stroke-width="1" x1="1383" y1="899" x2="1383" y2="40"/>
<line opacity="0.1" stroke="#000000" stroke-width="1" x1="1406" y1="899" x2="1406" y2="40"/>
<line opacity="0.1" stroke="#000000" stroke-width="1" x1="1429" y1="899" x2="1429" y2="40"/>
<line opacity="0.1" stroke="#000000" stroke-width="1" x1="1453" y1="899" x2="1453" y2="40"/>
<line opacity="0.1" stroke="#000000" stroke-width="1" x1="1476" y1="899" x2="1476" y2="40"/>
<line opacity="0.1" stroke="#000000" stroke-width="1" x1="1499" y1="899" x2="1499" y2="40"/>
<line opacity="0.1" stroke="#000000" stroke-width="1" x1="1523" y1="899" x2="1523" y2="40"/>
<line opacity="0.1" stroke="#000000" stroke-width="1" x1="1546" y1="899" x2="1546" y2="40"/>
<line opacity="0.1" stroke="#000000" stroke-width="1" x1="1570" y1="899" x2="1570" y2="40"/>
<line opacity="0.1" stroke="#000000" stroke-width="1" x1="1593" y1="899" x2="1593" y2="40"/>
<line opacity="0.1" stroke="#000000" stroke-width="1" x1="1616" y1="899" x2="1616" y2="40"/>
<line opacity="0.1" stroke="#000000" stroke-width="1" x1="1640" y1="899" x2="1640" y2="40"/>
<line opacity="0.1" stroke="#000000" stroke-width="1" x1="1663" y1="899" x2="1663" y2="40"/>
<line opacity="0.1" stroke="#000000" stroke-width="1" x1="1687" y1="899" x2="1687" y2="40"/>
<line opacity="0.1" stroke="#000000" stroke-width="1" x1="1710" y1="899" x2="1710" y2="40"/>
<line opacity="0.1" stroke="#000000" stroke-width="1" x1="1733" y1="899" x2="1733" y2="40"/>
<line opacity="0.1" stroke="#000000" stroke-width="1" x1="1757" y1="899" x2="1757" y2="40"/>
<line opacity="0.1" stroke="#000000" stroke-width="1" x1="1780" y1="899" x2="1780" y2="40"/>
<line opacity="0.1" stroke="#000000" stroke-width="1" x1="1804" y1="899" x2="1804" y2="40"/>
<line opacity="0.1" stroke="#000000" stroke-width="1" x1="1827" y1="899" x2="1827" y2="40"/>
<line opacity="0.1" stroke="#000000" stroke-width="1" x1="1850" y1="899" x2="1850" y2="40"/>
<line opacity="0.1" stroke="#000000" stroke-width="1" x1="1874" y1="899" x2="1874" y2="40"/>
<line opacity="0.1" stroke="#000000" stroke-width="1" x1="1897" y1="899" x2="1897" y2="40"/>
<line opacity="0.1" stroke="#000000" stroke-width="1" x1="1921" y1="899" x2="1921" y2="40"/>
<line opacity="0.1" stroke="#000000" stroke-width="1" x1="1944" y1="899" x2="1944" y2="40"/>
<line opacity="0.1" stroke="#000000" stroke-width="1" x1="190" y1="899" x2="1959" y2="899"/>
<line opacity="0.1" stroke="#000000" stroke-width="1" x1="190" y1="891" x2="1959" y2="891"/>
<line opacity="0.1" stroke="#000000" stroke-width="1" x1="190" y1="882" x2="1959" y2="882"/>
<line opacity="0.1" stroke="#000000" stroke-width="1" x1="190" y1="874" x2="1959" y2="874"/>
<line opacity="0.1" stroke="#000000" stroke-width="1" x1="190" y1="865" x2="1959" y2="865"/>
<line opacity="0.1" stroke="#000000" stroke-width="1" x1="190" y1="857" x2="1959" y2="857"/>
<line opacity="0.1" stroke="#000000" stroke-width="1" x1="190" y1="848" x2="1959" y2="848"/>
<line opacity="0.1" stroke="#000000" stroke-width="1" x1="190" y1="839" x2="1959" y2="839"/>
<line opacity="0.1" stroke="#000000" stroke-width="1" x1="190" y1="831" x2="1959" y2="831"/>
<line opacity="0.1" stroke="#000000" stroke-width="1" x1="190" y1="822" x2="1959" y2="822"/>
<line opacity="0.1" stroke="#000000" stroke-width="1" x1="190" y1="814" x2="1959" y2="814"/>
<line opacity="0.1" stroke="#000000" stroke-width="1" x1="190" y1="805" x2="1959" y2="805"/>
<line opacity="0.1" stroke="#000000" stroke-width="1" x1="190" y1="796" x2="1959" y2="796"/>
<line opacity="0.1" stroke="#000000" stroke-width="1" x1="190" y1="788" x2="1959" y2="788"/>
<line opacity="0.1" stroke="#000000" stroke-width="1" x1="190" y1="779" x2="1959" y2="779"/>
<line opacity="0.1" stroke="#000000" stroke-width="1" x1="190" y1="771" x2="1959" y2="771"/>
<line opacity="0.1" stroke="#000000" stroke-width="1" x1="190" y1="762" x2="1959" y2="762"/>
<line opacity="0.1" stroke="#000000" stroke-width="1" x1="190" y1="753" x2="1959" y2="753"/>
<line opacity="0.1" stroke="#000000" stroke-width="1" x1="190" y1="745" x2="1959" y2="745"/>
<line opacity="0.1" stroke="#000000" stroke-width="1" x1="190" y1="736" x2="1959" y2="736"/>
<line opacity="0.1" stroke="#000000" stroke-width="1" x1="190" y1="728" x2="1959" y2="728"/>
<line opacity="0.1" stroke="#000000" stroke-width="1" x1="190" y1="719" x2="1959" y2="719"/>
<line opacity="0.1" stroke="#000000" stroke-width="1" x1="190" y1="711" x2="1959" y2="711"/>
<line opacity="0.1" stroke="#000000" stroke-width="1" x1="190" y1="702" x2="1959" y2="702"/>
<line opacity="0.1" stroke="#000000" stroke-width="1" x1="190" y1="693" x2="1959" y2="693"/>
<line opacity="0.1" stroke="#000000" stroke-width="1" x1="190" y1="685" x2="1959" y2="685"/>
<line opacity="0.1" stroke="#000000" stroke-width="1" x1="190" y1="676" x2="1959" y2="676"/>
<line opacity="0.1" stroke="#000000" stroke-width="1" x1="190" y1="668" x2="1959" y2="668"/>
<line opacity="0.1" stroke="#000000" stroke-width="1" x1="190" y1="659" x2="1959" y2="659"/>
<line opacity="0.1" stroke="#000000" stroke-width="1" x1="190" y1="650" x2="1959" y2="650"/>
<line opacity="0.1" stroke="#000000" stroke-width="1" x1="190" y1="642" x2="1959" y2="642"/>
<line opacity="0.1" stroke="#000000" stroke-width="1" x1="190" y1="633" x2="1959" y2="633"/>
<line opacity="0.1" stroke="#000000" stroke-width="1" x1="190" y1="625" x2="1959" y2="625"/>
<line opacity="0.1" stroke="#000000" stroke-width="1" x1="190" y1="616" x2="1959" y2="616"/>
<line opacity="0.1" stroke="#000000" stroke-width="1" x1="190" y1="607" x2="1959" y2="607"/>
<line opacity="0.1" stroke="#000000" stroke-width="1" x1="190" y1="599" x2="1959" y2="599"/>
<line opacity="0.1" stroke="#000000" stroke-width="1" x1="190" y1="590" x2="1959" y2="590"/>
<line opacity="0.1" stroke="#000000" stroke-width="1" x1="190" y1="582" x2="1959" y2="582"/>
<line opacity="0.1" stroke="#000000" stroke-width="1" x1="190" y1="573" x2="1959" y2="573"/>
<line opacity="0.1" stroke="#000000" stroke-width="1" x1="190" y1="564" x2="1959" y2="564"/>
<line opacity="0.1" stroke="#000000" stroke-width="1" x1="190" y1="556" x2="1959" y2="556"/>
<line opacity="0.1" stroke="#000000" stroke-width="1" x1="190" y1="547" x2="1959" y2="547"/>
<line opacity="0.1" stroke="#000000" stroke-width="1" x1="190" y1="539" x2="1959" y2="539"/>
<line opacity="0.1" stroke="#000000" stroke-width="1" x1="190" y1="530" x2="1959" y2="530"/>
<line opacity="0.1" stroke="#000000" stroke-width="1" x1="190" y1="522" x2="1959" y2="522"/>
<line opacity="0.1" stroke="#000000" stroke-width="1" x1="190" y1="513" x2="1959" y2="513"/>
<line opacity="0.1" stroke="#000000" stroke-width="1" x1="190" y1="504" x2="1959" y2="504"/>
<line opacity="0.1" stroke="#000000" stroke-width="1" x1="190" y1="496" x2="1959" y2="496"/>
<line opacity="0.1" stroke="#000000" stroke-width="1" x1="190" y1="487" x2="1959" y2="487"/>
<line opacity="0.1" stroke="#000000" stroke-width="1" x1="190" y1="479" x2="1959" y2="479"/>
<line opacity="0.1" stroke="#000000" stroke-width="1" x1="190" y1="470" x2="1959" y2="470"/>
<line opacity="0.1" stroke="#000000" stroke-width="1" x1="190" y1="461" x2="1959" y2="461"/>
<line opacity="0.1" stroke="#000000" stroke-width="1" x1="190" y1="453" x2="1959" y2="453"/>
<line opacity="0.1" stroke="#000000" stroke-width="1" x1="190" y1="444" x2="1959" y2="444"/>
<line opacity="0.1" stroke="#000000" stroke-width="1" x1="190" y1="436" x2="1959" y2="436"/>
<line opacity="0.1" stroke="#000000" stroke-width="1" x1="190" y1="427" x2="1959" y2="427"/>
<line opacity="0.1" stroke="#000000" stroke-width="1" x1="190" y1="418" x2="1959" y2="418"/>
<line opacity="0.1" stroke="#000000" stroke-width="1" x1="190" y1="410" x2="1959" y2="410"/>
<line opacity="0.1" stroke="#000000" stroke-width="1" x1="190" y1="401" x2="1959" y2="401"/>
<line opacity="0.1" stroke="#000000" stroke-width="1" x1="190" y1="393" x2="1959" y2="393"/>
<line opacity="0.1" stroke="#000000" stroke-width="1" x1="190" y1="384" x2="1959" y2="384"/>
<line opacity="0.1" stroke="#000000" stroke-width="1" x1="190" y1="376" x2="1959" y2="376"/>
<line opacity="0.1" stroke="#000000" stroke-width="1" x1="190" y1="367" x2="1959" y2="367"/>
<line opacity="0.1" stroke="#000000" stroke-width="1" x1="190" y1="358" x2="1959" y2="358"/>
<line opacity="0.1" stroke="#000000" stroke-width="1" x1="190" y1="350" x2="1959" y2="350"/>
<line opacity="0.1" stroke="#000000" stroke-width="1" x1="190" y1="341" x2="1959" y2="341"/>
<line opacity="0.1" stroke="#000000" stroke-width="1" x1="190" y1="333" x2="1959" y2="333"/>
<line opacity="0.1" stroke="#000000" stroke-width="1" x1="190" y1="324" x2="1959" y2="324"/>
<line opacity="0.1" stroke="#000000" stroke-width="1" x1="190" y1="315" x2="1959" y2="315"/>
<line opacity="0.1" stroke="#000000" stroke-width="1" x1="190" y1="307" x2="1959" y2="307"/>
<line opacity="0.1" stroke="#000000" stroke-width="1" x1="190" y1="298" x2="1959" y2="298"/>
<line opacity="0.1" stroke="#000000" stroke-width="1" x1="190" y1="290" x2="1959" y2="290"/>
<line opacity="0.1" stroke="#000000" stroke-width="1" x1="190" y1="281" x2="1959" y2="281"/>
<line opacity="0.1" stroke="#000000" stroke-width="1" x1="190" y1="272" x2="1959" y2="272"/>
<line opacity="0.1" stroke="#000000" stroke-width="1" x1="190" y1="264" x2="1959" y2="264"/>
<line opacity="0.1" stroke="#000000" stroke-width="1" x1="190" y1="255" x2="1959" y2="255"/>
<line opacity="0.1" stroke="#000000" stroke-width="1" x1="190" y1="247" x2="1959" y2="247"/>
<line opacity="0.1" stroke="#000000" stroke-width="1" x1="190" y1="238" x2="1959" y2="238"/>
<line opacity="0.1" stroke="#000000" stroke-width="1" x1="190" y1="229" x2="1959" y2="229"/>
<line opacity="0.1" stroke="#000000" stroke-width="1" x1="190" y1="221" x2="1959" y2="221"/>
<line opacity="0.1" stroke="#000000" stroke-width="1" x1="190" y1="212" x2="1959" y2="212"/>
<line opacity="0.1" stroke="#000000" stroke-width="1" x1="190" y1="204" x2="1959" y2="204"/>
<line opacity="0.1" stroke="#000000" stroke-width="1" x1="190" y1="195" x2="1959" y2="195"/>
<line opacity="0.1" stroke="#000000" stroke-width="1" x1="190" y1="187" x2="1959" y2="187"/>
<line opacity="0.1" stroke="#000000" stroke-width="1" x1="190" y1="178" x2="1959" y2="178"/>
<line opacity="0.1" stroke="#000000" stroke-width="1" x1="190" y1="169" x2="1959" y2="169"/>
<line opacity="0.1" stroke="#000000" stroke-width="1" x1="190" y1="161" x2="1959" y2="161"/>
<line opacity="0.1" stroke="#000000" stroke-width="1" x1="190" y1="152" x2="1959" y2="152"/>
<line opacity="0.1" stroke="#000000" stroke-width="1" x1="190" y1="144" x2="1959" y2="144"/>
<line opacity="0.1" stroke="#000000" stroke-width="1" x1="190" y1="135" x2="1959" y2="135"/>
<line opacity="0.1" stroke="#000000" stroke-width="1" x1="190" y1="126" x2="1959" y2="126"/>
<line opacity="0.1" stroke="#000000" stroke-width="1" x1="190" y1="118" x2="1959" y2="118"/>
<line opacity="0.1" stroke="#000000" stroke-width="1" x1="190" y1="109" x2="1959" y2="109"/>
<line opacity="0.1" stroke="#000000" stroke-width="1" x1="190" y1="101" x2="1959" y2="101"/>
<line opacity="0.1" stroke="#000000" stroke-width="1" x1="190" y1="92" x2="1959" y2="92"/>
<line opacity="0.1" stroke="#000000" stroke-width="1" x1="190" y1="83" x2="1959" y2="83"/>
<line opacity="0.1" stroke="#000000" stroke-width="1" x1="190" y1="75" x2="1959" y2="75"/>
<line opacity="0.1" stroke="#000000" stroke-width="1" x1="190" y1="66" x2="1959" y2="66"/>
<line opacity="0.1" stroke="#000000" stroke-width="1" x1="190" y1="58" x2="1959" y2="58"/>
<line opacity="0.1" stroke="#000000" stroke-width="1" x1="190" y1="49" x2="1959" y2="49"/>
<text x="40" y="470" dy="0.76em" text-anchor="middle" font-family="sans-serif" font-size="25.806451612903228" opacity="1" fill="#000000" transform="rotate(270, 40, 470)">
success rate [%]
</text>
<text x="1075" y="960" dy="-0.5ex" text-anchor="middle" font-family="sans-serif" font-size="25.806451612903228" opacity="1" fill="#000000">
throughput [req/s]
</text>
<line opacity="0.2" stroke="#000000" stroke-width="1" x1="190" y1="899" x2="190" y2="40"/>
<line opacity="0.2" stroke="#000000" stroke-width="1" x1="423" y1="899" x2="423" y2="40"/>
<line opacity="0.2" stroke="#000000" stroke-width="1" x1="657" y1="899" x2="657" y2="40"/>
<line opacity="0.2" stroke="#000000" stroke-width="1" x1="891" y1="899" x2="891" y2="40"/>
<line opacity="0.2" stroke="#000000" stroke-width="1" x1="1125" y1="899" x2="1125" y2="40"/>
<line opacity="0.2" stroke="#000000" stroke-width="1" x1="1359" y1="899" x2="1359" y2="40"/>
<line opacity="0.2" stroke="#000000" stroke-width="1" x1="1593" y1="899" x2="1593" y2="40"/>
<line opacity="0.2" stroke="#000000" stroke-width="1" x1="1827" y1="899" x2="1827" y2="40"/>
<line opacity="0.2" stroke="#000000" stroke-width="1" x1="190" y1="899" x2="1959" y2="899"/>
<line opacity="0.2" stroke="#000000" stroke-width="1" x1="190" y1="814" x2="1959" y2="814"/>
<line opacity="0.2" stroke="#000000" stroke-width="1" x1="190" y1="728" x2="1959" y2="728"/>
<line opacity="0.2" stroke="#000000" stroke-width="1" x1="190" y1="642" x2="1959" y2="642"/>
<line opacity="0.2" stroke="#000000" stroke-width="1" x1="190" y1="556" x2="1959" y2="556"/>
<line opacity="0.2" stroke="#000000" stroke-width="1" x1="190" y1="470" x2="1959" y2="470"/>
<line opacity="0.2" stroke="#000000" stroke-width="1" x1="190" y1="384" x2="1959" y2="384"/>
<line opacity="0.2" stroke="#000000" stroke-width="1" x1="190" y1="298" x2="1959" y2="298"/>
<line opacity="0.2" stroke="#000000" stroke-width="1" x1="190" y1="212" x2="1959" y2="212"/>
<line opacity="0.2" stroke="#000000" stroke-width="1" x1="190" y1="126" x2="1959" y2="126"/>
<line opacity="0.2" stroke="#000000" stroke-width="1" x1="190" y1="40" x2="1959" y2="40"/>
<polyline fill="none" opacity="1" stroke="#000000" stroke-width="1" points="189,40 189,899 "/>
<text x="180" y="899" dy="0.5ex" text-anchor="end" font-family="sans-serif" font-size="19.35483870967742" opacity="1" fill="#000000">
0.0
</text>
<polyline fill="none" opacity="1" stroke="#000000" stroke-width="1" points="184,899 189,899 "/>
<text x="180" y="814" dy="0.5ex" text-anchor="end" font-family="sans-serif" font-size="19.35483870967742" opacity="1" fill="#000000">
0.1
</text>
<polyline fill="none" opacity="1" stroke="#000000" stroke-width="1" points="184,814 189,814 "/>
<text x="180" y="728" dy="0.5ex" text-anchor="end" font-family="sans-serif" font-size="19.35483870967742" opacity="1" fill="#000000">
0.2
</text>
<polyline fill="none" opacity="1" stroke="#000000" stroke-width="1" points="184,728 189,728 "/>
<text x="180" y="642" dy="0.5ex" text-anchor="end" font-family="sans-serif" font-size="19.35483870967742" opacity="1" fill="#000000">
0.3
</text>
<polyline fill="none" opacity="1" stroke="#000000" stroke-width="1" points="184,642 189,642 "/>
<text x="180" y="556" dy="0.5ex" text-anchor="end" font-family="sans-serif" font-size="19.35483870967742" opacity="1" fill="#000000">
0.4
</text>
<polyline fill="none" opacity="1" stroke="#000000" stroke-width="1" points="184,556 189,556 "/>
<text x="180" y="470" dy="0.5ex" text-anchor="end" font-family="sans-serif" font-size="19.35483870967742" opacity="1" fill="#000000">
0.5
</text>
<polyline fill="none" opacity="1" stroke="#000000" stroke-width="1" points="184,470 189,470 "/>
<text x="180" y="384" dy="0.5ex" text-anchor="end" font-family="sans-serif" font-size="19.35483870967742" opacity="1" fill="#000000">
0.6
</text>
<polyline fill="none" opacity="1" stroke="#000000" stroke-width="1" points="184,384 189,384 "/>
<text x="180" y="298" dy="0.5ex" text-anchor="end" font-family="sans-serif" font-size="19.35483870967742" opacity="1" fill="#000000">
0.7
</text>
<polyline fill="none" opacity="1" stroke="#000000" stroke-width="1" points="184,298 189,298 "/>
<text x="180" y="212" dy="0.5ex" text-anchor="end" font-family="sans-serif" font-size="19.35483870967742" opacity="1" fill="#000000">
0.8
</text>
<polyline fill="none" opacity="1" stroke="#000000" stroke-width="1" points="184,212 189,212 "/>
<text x="180" y="126" dy="0.5ex" text-anchor="end" font-family="sans-serif" font-size="19.35483870967742" opacity="1" fill="#000000">
0.9
</text>
<polyline fill="none" opacity="1" stroke="#000000" stroke-width="1" points="184,126 189,126 "/>
<text x="180" y="40" dy="0.5ex" text-anchor="end" font-family="sans-serif" font-size="19.35483870967742" opacity="1" fill="#000000">
1.0
</text>
<polyline fill="none" opacity="1" stroke="#000000" stroke-width="1" points="184,40 189,40 "/>
<polyline fill="none" opacity="1" stroke="#000000" stroke-width="1" points="190,900 1959,900 "/>
<text x="190" y="910" dy="0.76em" text-anchor="middle" font-family="sans-serif" font-size="19.35483870967742" opacity="1" fill="#000000">
0.0
</text>
<polyline fill="none" opacity="1" stroke="#000000" stroke-width="1" points="190,900 190,905 "/>
<text x="423" y="910" dy="0.76em" text-anchor="middle" font-family="sans-serif" font-size="19.35483870967742" opacity="1" fill="#000000">
10000.0
</text>
<polyline fill="none" opacity="1" stroke="#000000" stroke-width="1" points="423,900 423,905 "/>
<text x="657" y="910" dy="0.76em" text-anchor="middle" font-family="sans-serif" font-size="19.35483870967742" opacity="1" fill="#000000">
20000.0
</text>
<polyline fill="none" opacity="1" stroke="#000000" stroke-width="1" points="657,900 657,905 "/>
<text x="891" y="910" dy="0.76em" text-anchor="middle" font-family="sans-serif" font-size="19.35483870967742" opacity="1" fill="#000000">
30000.0
</text>
<polyline fill="none" opacity="1" stroke="#000000" stroke-width="1" points="891,900 891,905 "/>
<text x="1125" y="910" dy="0.76em" text-anchor="middle" font-family="sans-serif" font-size="19.35483870967742" opacity="1" fill="#000000">
40000.0
</text>
<polyline fill="none" opacity="1" stroke="#000000" stroke-width="1" points="1125,900 1125,905 "/>
<text x="1359" y="910" dy="0.76em" text-anchor="middle" font-family="sans-serif" font-size="19.35483870967742" opacity="1" fill="#000000">
50000.0
</text>
<polyline fill="none" opacity="1" stroke="#000000" stroke-width="1" points="1359,900 1359,905 "/>
<text x="1593" y="910" dy="0.76em" text-anchor="middle" font-family="sans-serif" font-size="19.35483870967742" opacity="1" fill="#000000">
60000.0
</text>
<polyline fill="none" opacity="1" stroke="#000000" stroke-width="1" points="1593,900 1593,905 "/>
<text x="1827" y="910" dy="0.76em" text-anchor="middle" font-family="sans-serif" font-size="19.35483870967742" opacity="1" fill="#000000">
70000.0
</text>
<polyline fill="none" opacity="1" stroke="#000000" stroke-width="1" points="1827,900 1827,905 "/>
<polyline fill="none" opacity="1" stroke="#FF0000" stroke-width="3" points="216,40 249,40 280,40 312,40 344,40 374,40 415,40 441,40 476,40 506,40 538,40 572,40 613,40 633,40 672,40 700,40 731,40 768,40 796,40 825,40 857,40 890,40 921,40 954,40 977,40 1022,40 1060,40 1085,40 1107,40 1145,40 1197,40 1215,40 1246,40 1230,40 1364,40 1334,40 1380,40 1407,40 1438,40 1471,40 1506,40 1534,40 1565,40 1599,40 1627,40 1663,40 1680,40 1742,40 1757,40 1793,40 1824,40 1849,40 1887,40 1923,40 1956,40 1950,40 1960,40 1960,40 1960,40 1959,40 "/>
<line opacity="1" stroke="#FF0000" stroke-width="1" x1="210" y1="34" x2="222" y2="46"/>
<line opacity="1" stroke="#FF0000" stroke-width="1" x1="210" y1="46" x2="222" y2="34"/>
<line opacity="1" stroke="#FF0000" stroke-width="1" x1="243" y1="34" x2="255" y2="46"/>
<line opacity="1" stroke="#FF0000" stroke-width="1" x1="243" y1="46" x2="255" y2="34"/>
<line opacity="1" stroke="#FF0000" stroke-width="1" x1="274" y1="34" x2="286" y2="46"/>
<line opacity="1" stroke="#FF0000" stroke-width="1" x1="274" y1="46" x2="286" y2="34"/>
<line opacity="1" stroke="#FF0000" stroke-width="1" x1="306" y1="34" x2="318" y2="46"/>
<line opacity="1" stroke="#FF0000" stroke-width="1" x1="306" y1="46" x2="318" y2="34"/>
<line opacity="1" stroke="#FF0000" stroke-width="1" x1="338" y1="34" x2="350" y2="46"/>
<line opacity="1" stroke="#FF0000" stroke-width="1" x1="338" y1="46" x2="350" y2="34"/>
<line opacity="1" stroke="#FF0000" stroke-width="1" x1="368" y1="34" x2="380" y2="46"/>
<line opacity="1" stroke="#FF0000" stroke-width="1" x1="368" y1="46" x2="380" y2="34"/>
<line opacity="1" stroke="#FF0000" stroke-width="1" x1="409" y1="34" x2="421" y2="46"/>
<line opacity="1" stroke="#FF0000" stroke-width="1" x1="409" y1="46" x2="421" y2="34"/>
<line opacity="1" stroke="#FF0000" stroke-width="1" x1="435" y1="34" x2="447" y2="46"/>
<line opacity="1" stroke="#FF0000" stroke-width="1" x1="435" y1="46" x2="447" y2="34"/>
<line opacity="1" stroke="#FF0000" stroke-width="1" x1="470" y1="34" x2="482" y2="46"/>
<line opacity="1" stroke="#FF0000" stroke-width="1" x1="470" y1="46" x2="482" y2="34"/>
<line opacity="1" stroke="#FF0000" stroke-width="1" x1="500" y1="34" x2="512" y2="46"/>
<line opacity="1" stroke="#FF0000" stroke-width="1" x1="500" y1="46" x2="512" y2="34"/>
<line opacity="1" stroke="#FF0000" stroke-width="1" x1="532" y1="34" x2="544" y2="46"/>
<line opacity="1" stroke="#FF0000" stroke-width="1" x1="532" y1="46" x2="544" y2="34"/>
<line opacity="1" stroke="#FF0000" stroke-width="1" x1="566" y1="34" x2="578" y2="46"/>
<line opacity="1" stroke="#FF0000" stroke-width="1" x1="566" y1="46" x2="578" y2="34"/>
<line opacity="1" stroke="#FF0000" stroke-width="1" x1="607" y1="34" x2="619" y2="46"/>
<line opacity="1" stroke="#FF0000" stroke-width="1" x1="607" y1="46" x2="619" y2="34"/>
<line opacity="1" stroke="#FF0000" stroke-width="1" x1="627" y1="34" x2="639" y2="46"/>
<line opacity="1" stroke="#FF0000" stroke-width="1" x1="627" y1="46" x2="639" y2="34"/>
<line opacity="1" stroke="#FF0000" stroke-width="1" x1="666" y1="34" x2="678" y2="46"/>
<line opacity="1" stroke="#FF0000" stroke-width="1" x1="666" y1="46" x2="678" y2="34"/>
<line opacity="1" stroke="#FF0000" stroke-width="1" x1="694" y1="34" x2="706" y2="46"/>
<line opacity="1" stroke="#FF0000" stroke-width="1" x1="694" y1="46" x2="706" y2="34"/>
<line opacity="1" stroke="#FF0000" stroke-width="1" x1="725" y1="34" x2="737" y2="46"/>
<line opacity="1" stroke="#FF0000" stroke-width="1" x1="725" y1="46" x2="737" y2="34"/>
<line opacity="1" stroke="#FF0000" stroke-width="1" x1="762" y1="34" x2="774" y2="46"/>
<line opacity="1" stroke="#FF0000" stroke-width="1" x1="762" y1="46" x2="774" y2="34"/>
<line opacity="1" stroke="#FF0000" stroke-width="1" x1="790" y1="34" x2="802" y2="46"/>
<line opacity="1" stroke="#FF0000" stroke-width="1" x1="790" y1="46" x2="802" y2="34"/>
<line opacity="1" stroke="#FF0000" stroke-width="1" x1="819" y1="34" x2="831" y2="46"/>
<line opacity="1" stroke="#FF0000" stroke-width="1" x1="819" y1="46" x2="831" y2="34"/>
<line opacity="1" stroke="#FF0000" stroke-width="1" x1="851" y1="34" x2="863" y2="46"/>
<line opacity="1" stroke="#FF0000" stroke-width="1" x1="851" y1="46" x2="863" y2="34"/>
<line opacity="1" stroke="#FF0000" stroke-width="1" x1="884" y1="34" x2="896" y2="46"/>
<line opacity="1" stroke="#FF0000" stroke-width="1" x1="884" y1="46" x2="896" y2="34"/>
<line opacity="1" stroke="#FF0000" stroke-width="1" x1="915" y1="34" x2="927" y2="46"/>
<line opacity="1" stroke="#FF0000" stroke-width="1" x1="915" y1="46" x2="927" y2="34"/>
<line opacity="1" stroke="#FF0000" stroke-width="1" x1="948" y1="34" x2="960" y2="46"/>
<line opacity="1" stroke="#FF0000" stroke-width="1" x1="948" y1="46" x2="960" y2="34"/>
<line opacity="1" stroke="#FF0000" stroke-width="1" x1="971" y1="34" x2="983" y2="46"/>
<line opacity="1" stroke="#FF0000" stroke-width="1" x1="971" y1="46" x2="983" y2="34"/>
<line opacity="1" stroke="#FF0000" stroke-width="1" x1="1016" y1="34" x2="1028" y2="46"/>
<line opacity="1" stroke="#FF0000" stroke-width="1" x1="1016" y1="46" x2="1028" y2="34"/>
<line opacity="1" stroke="#FF0000" stroke-width="1" x1="1054" y1="34" x2="1066" y2="46"/>
<line opacity="1" stroke="#FF0000" stroke-width="1" x1="1054" y1="46" x2="1066" y2="34"/>
<line opacity="1" stroke="#FF0000" stroke-width="1" x1="1079" y1="34" x2="1091" y2="46"/>
<line opacity="1" stroke="#FF0000" stroke-width="1" x1="1079" y1="46" x2="1091" y2="34"/>
<line opacity="1" stroke="#FF0000" stroke-width="1" x1="1101" y1="34" x2="1113" y2="46"/>
<line opacity="1" stroke="#FF0000" stroke-width="1" x1="1101" y1="46" x2="1113" y2="34"/>
<line opacity="1" stroke="#FF0000" stroke-width="1" x1="1139" y1="34" x2="1151" y2="46"/>
<line opacity="1" stroke="#FF0000" stroke-width="1" x1="1139" y1="46" x2="1151" y2="34"/>
<line opacity="1" stroke="#FF0000" stroke-width="1" x1="1191" y1="34" x2="1203" y2="46"/>
<line opacity="1" stroke="#FF0000" stroke-width="1" x1="1191" y1="46" x2="1203" y2="34"/>
<line opacity="1" stroke="#FF0000" stroke-width="1" x1="1209" y1="34" x2="1221" y2="46"/>
<line opacity="1" stroke="#FF0000" stroke-width="1" x1="1209" y1="46" x2="1221" y2="34"/>
<line opacity="1" stroke="#FF0000" stroke-width="1" x1="1240" y1="34" x2="1252" y2="46"/>
<line opacity="1" stroke="#FF0000" stroke-width="1" x1="1240" y1="46" x2="1252" y2="34"/>
<line opacity="1" stroke="#FF0000" stroke-width="1" x1="1224" y1="34" x2="1236" y2="46"/>
<line opacity="1" stroke="#FF0000" stroke-width="1" x1="1224" y1="46" x2="1236" y2="34"/>
<line opacity="1" stroke="#FF0000" stroke-width="1" x1="1358" y1="34" x2="1370" y2="46"/>
<line opacity="1" stroke="#FF0000" stroke-width="1" x1="1358" y1="46" x2="1370" y2="34"/>
<line opacity="1" stroke="#FF0000" stroke-width="1" x1="1328" y1="34" x2="1340" y2="46"/>
<line opacity="1" stroke="#FF0000" stroke-width="1" x1="1328" y1="46" x2="1340" y2="34"/>
<line opacity="1" stroke="#FF0000" stroke-width="1" x1="1374" y1="34" x2="1386" y2="46"/>
<line opacity="1" stroke="#FF0000" stroke-width="1" x1="1374" y1="46" x2="1386" y2="34"/>
<line opacity="1" stroke="#FF0000" stroke-width="1" x1="1401" y1="34" x2="1413" y2="46"/>
<line opacity="1" stroke="#FF0000" stroke-width="1" x1="1401" y1="46" x2="1413" y2="34"/>
<line opacity="1" stroke="#FF0000" stroke-width="1" x1="1432" y1="34" x2="1444" y2="46"/>
<line opacity="1" stroke="#FF0000" stroke-width="1" x1="1432" y1="46" x2="1444" y2="34"/>
<line opacity="1" stroke="#FF0000" stroke-width="1" x1="1465" y1="34" x2="1477" y2="46"/>
<line opacity="1" stroke="#FF0000" stroke-width="1" x1="1465" y1="46" x2="1477" y2="34"/>
<line opacity="1" stroke="#FF0000" stroke-width="1" x1="1500" y1="34" x2="1512" y2="46"/>
<line opacity="1" stroke="#FF0000" stroke-width="1" x1="1500" y1="46" x2="1512" y2="34"/>
<line opacity="1" stroke="#FF0000" stroke-width="1" x1="1528" y1="34" x2="1540" y2="46"/>
<line opacity="1" stroke="#FF0000" stroke-width="1" x1="1528" y1="46" x2="1540" y2="34"/>
<line opacity="1" stroke="#FF0000" stroke-width="1" x1="1559" y1="34" x2="1571" y2="46"/>
<line opacity="1" stroke="#FF0000" stroke-width="1" x1="1559" y1="46" x2="1571" y2="34"/>
<line opacity="1" stroke="#FF0000" stroke-width="1" x1="1593" y1="34" x2="1605" y2="46"/>
<line opacity="1" stroke="#FF0000" stroke-width="1" x1="1593" y1="46" x2="1605" y2="34"/>
<line opacity="1" stroke="#FF0000" stroke-width="1" x1="1621" y1="34" x2="1633" y2="46"/>
<line opacity="1" stroke="#FF0000" stroke-width="1" x1="1621" y1="46" x2="1633" y2="34"/>
<line opacity="1" stroke="#FF0000" stroke-width="1" x1="1657" y1="34" x2="1669" y2="46"/>
<line opacity="1" stroke="#FF0000" stroke-width="1" x1="1657" y1="46" x2="1669" y2="34"/>
<line opacity="1" stroke="#FF0000" stroke-width="1" x1="1674" y1="34" x2="1686" y2="46"/>
<line opacity="1" stroke="#FF0000" stroke-width="1" x1="1674" y1="46" x2="1686" y2="34"/>
<line opacity="1" stroke="#FF0000" stroke-width="1" x1="1736" y1="34" x2="1748" y2="46"/>
<line opacity="1" stroke="#FF0000" stroke-width="1" x1="1736" y1="46" x2="1748" y2="34"/>
<line opacity="1" stroke="#FF0000" stroke-width="1" x1="1751" y1="34" x2="1763" y2="46"/>
<line opacity="1" stroke="#FF0000" stroke-width="1" x1="1751" y1="46" x2="1763" y2="34"/>
<line opacity="1" stroke="#FF0000" stroke-width="1" x1="1787" y1="34" x2="1799" y2="46"/>
<line opacity="1" stroke="#FF0000" stroke-width="1" x1="1787" y1="46" x2="1799" y2="34"/>
<line opacity="1" stroke="#FF0000" stroke-width="1" x1="1818" y1="34" x2="1830" y2="46"/>
<line opacity="1" stroke="#FF0000" stroke-width="1" x1="1818" y1="46" x2="1830" y2="34"/>
<line opacity="1" stroke="#FF0000" stroke-width="1" x1="1843" y1="34" x2="1855" y2="46"/>
<line opacity="1" stroke="#FF0000" stroke-width="1" x1="1843" y1="46" x2="1855" y2="34"/>
<line opacity="1" stroke="#FF0000" stroke-width="1" x1="1881" y1="34" x2="1893" y2="46"/>
<line opacity="1" stroke="#FF0000" stroke-width="1" x1="1881" y1="46" x2="1893" y2="34"/>
<line opacity="1" stroke="#FF0000" stroke-width="1" x1="1917" y1="34" x2="1929" y2="46"/>
<line opacity="1" stroke="#FF0000" stroke-width="1" x1="1917" y1="46" x2="1929" y2="34"/>
<line opacity="1" stroke="#FF0000" stroke-width="1" x1="1950" y1="34" x2="1962" y2="46"/>
<line opacity="1" stroke="#FF0000" stroke-width="1" x1="1950" y1="46" x2="1962" y2="34"/>
<line opacity="1" stroke="#FF0000" stroke-width="1" x1="1944" y1="34" x2="1956" y2="46"/>
<line opacity="1" stroke="#FF0000" stroke-width="1" x1="1944" y1="46" x2="1956" y2="34"/>
<line opacity="1" stroke="#FF0000" stroke-width="1" x1="1954" y1="34" x2="1966" y2="46"/>
<line opacity="1" stroke="#FF0000" stroke-width="1" x1="1954" y1="46" x2="1966" y2="34"/>
<line opacity="1" stroke="#FF0000" stroke-width="1" x1="1954" y1="34" x2="1966" y2="46"/>
<line opacity="1" stroke="#FF0000" stroke-width="1" x1="1954" y1="46" x2="1966" y2="34"/>
<line opacity="1" stroke="#FF0000" stroke-width="1" x1="1954" y1="34" x2="1966" y2="46"/>
<line opacity="1" stroke="#FF0000" stroke-width="1" x1="1954" y1="46" x2="1966" y2="34"/>
<line opacity="1" stroke="#FF0000" stroke-width="1" x1="1953" y1="34" x2="1965" y2="46"/>
<line opacity="1" stroke="#FF0000" stroke-width="1" x1="1953" y1="46" x2="1965" y2="34"/>
<polyline fill="none" opacity="1" stroke="#0000FF" stroke-width="3" points="216,40 249,40 280,40 313,40 344,40 376,40 409,40 440,40 471,40 508,40 539,40 571,40 596,40 642,40 667,40 700,40 728,40 769,40 798,40 829,40 861,40 896,40 925,40 956,40 981,40 1032,40 1056,40 1089,40 1108,40 1166,40 1182,40 1221,40 1246,40 1282,40 1313,40 1336,40 1387,40 1407,40 1357,40 1560,40 1499,40 1528,40 1559,40 1599,40 1626,40 1658,40 1686,40 1733,40 1755,40 1780,40 1829,40 1852,40 1883,40 1902,40 1960,40 1960,40 1960,40 1960,40 1960,40 1945,40 "/>
<line opacity="1" stroke="#0000FF" stroke-width="1" x1="210" y1="34" x2="222" y2="46"/>
<line opacity="1" stroke="#0000FF" stroke-width="1" x1="210" y1="46" x2="222" y2="34"/>
<line opacity="1" stroke="#0000FF" stroke-width="1" x1="243" y1="34" x2="255" y2="46"/>
<line opacity="1" stroke="#0000FF" stroke-width="1" x1="243" y1="46" x2="255" y2="34"/>
<line opacity="1" stroke="#0000FF" stroke-width="1" x1="274" y1="34" x2="286" y2="46"/>
<line opacity="1" stroke="#0000FF" stroke-width="1" x1="274" y1="46" x2="286" y2="34"/>
<line opacity="1" stroke="#0000FF" stroke-width="1" x1="307" y1="34" x2="319" y2="46"/>
<line opacity="1" stroke="#0000FF" stroke-width="1" x1="307" y1="46" x2="319" y2="34"/>
<line opacity="1" stroke="#0000FF" stroke-width="1" x1="338" y1="34" x2="350" y2="46"/>
<line opacity="1" stroke="#0000FF" stroke-width="1" x1="338" y1="46" x2="350" y2="34"/>
<line opacity="1" stroke="#0000FF" stroke-width="1" x1="370" y1="34" x2="382" y2="46"/>
<line opacity="1" stroke="#0000FF" stroke-width="1" x1="370" y1="46" x2="382" y2="34"/>
<line opacity="1" stroke="#0000FF" stroke-width="1" x1="403" y1="34" x2="415" y2="46"/>
<line opacity="1" stroke="#0000FF" stroke-width="1" x1="403" y1="46" x2="415" y2="34"/>
<line opacity="1" stroke="#0000FF" stroke-width="1" x1="434" y1="34" x2="446" y2="46"/>
<line opacity="1" stroke="#0000FF" stroke-width="1" x1="434" y1="46" x2="446" y2="34"/>
<line opacity="1" stroke="#0000FF" stroke-width="1" x1="465" y1="34" x2="477" y2="46"/>
<line opacity="1" stroke="#0000FF" stroke-width="1" x1="465" y1="46" x2="477" y2="34"/>
<line opacity="1" stroke="#0000FF" stroke-width="1" x1="502" y1="34" x2="514" y2="46"/>
<line opacity="1" stroke="#0000FF" stroke-width="1" x1="502" y1="46" x2="514" y2="34"/>
<line opacity="1" stroke="#0000FF" stroke-width="1" x1="533" y1="34" x2="545" y2="46"/>
<line opacity="1" stroke="#0000FF" stroke-width="1" x1="533" y1="46" x2="545" y2="34"/>
<line opacity="1" stroke="#0000FF" stroke-width="1" x1="565" y1="34" x2="577" y2="46"/>
<line opacity="1" stroke="#0000FF" stroke-width="1" x1="565" y1="46" x2="577" y2="34"/>
<line opacity="1" stroke="#0000FF" stroke-width="1" x1="590" y1="34" x2="602" y2="46"/>
<line opacity="1" stroke="#0000FF" stroke-width="1" x1="590" y1="46" x2="602" y2="34"/>
<line opacity="1" stroke="#0000FF" stroke-width="1" x1="636" y1="34" x2="648" y2="46"/>
<line opacity="1" stroke="#0000FF" stroke-width="1" x1="636" y1="46" x2="648" y2="34"/>
<line opacity="1" stroke="#0000FF" stroke-width="1" x1="661" y1="34" x2="673" y2="46"/>
<line opacity="1" stroke="#0000FF" stroke-width="1" x1="661" y1="46" x2="673" y2="34"/>
<line opacity="1" stroke="#0000FF" stroke-width="1" x1="694" y1="34" x2="706" y2="46"/>
<line opacity="1" stroke="#0000FF" stroke-width="1" x1="694" y1="46" x2="706" y2="34"/>
<line opacity="1" stroke="#0000FF" stroke-width="1" x1="722" y1="34" x2="734" y2="46"/>
<line opacity="1" stroke="#0000FF" stroke-width="1" x1="722" y1="46" x2="734" y2="34"/>
<line opacity="1" stroke="#0000FF" stroke-width="1" x1="763" y1="34" x2="775" y2="46"/>
<line opacity="1" stroke="#0000FF" stroke-width="1" x1="763" y1="46" x2="775" y2="34"/>
<line opacity="1" stroke="#0000FF" stroke-width="1" x1="792" y1="34" x2="804" y2="46"/>
<line opacity="1" stroke="#0000FF" stroke-width="1" x1="792" y1="46" x2="804" y2="34"/>
<line opacity="1" stroke="#0000FF" stroke-width="1" x1="823" y1="34" x2="835" y2="46"/>
<line opacity="1" stroke="#0000FF" stroke-width="1" x1="823" y1="46" x2="835" y2="34"/>
<line opacity="1" stroke="#0000FF" stroke-width="1" x1="855" y1="34" x2="867" y2="46"/>
<line opacity="1" stroke="#0000FF" stroke-width="1" x1="855" y1="46" x2="867" y2="34"/>
<line opacity="1" stroke="#0000FF" stroke-width="1" x1="890" y1="34" x2="902" y2="46"/>
<line opacity="1" stroke="#0000FF" stroke-width="1" x1="890" y1="46" x2="902" y2="34"/>
<line opacity="1" stroke="#0000FF" stroke-width="1" x1="919" y1="34" x2="931" y2="46"/>
<line opacity="1" stroke="#0000FF" stroke-width="1" x1="919" y1="46" x2="931" y2="34"/>
<line opacity="1" stroke="#0000FF" stroke-width="1" x1="950" y1="34" x2="962" y2="46"/>
<line opacity="1" stroke="#0000FF" stroke-width="1" x1="950" y1="46" x2="962" y2="34"/>
<line opacity="1" stroke="#0000FF" stroke-width="1" x1="975" y1="34" x2="987" y2="46"/>
<line opacity="1" stroke="#0000FF" stroke-width="1" x1="975" y1="46" x2="987" y2="34"/>
<line opacity="1" stroke="#0000FF" stroke-width="1" x1="1026" y1="34" x2="1038" y2="46"/>
<line opacity="1" stroke="#0000FF" stroke-width="1" x1="1026" y1="46" x2="1038" y2="34"/>
<line opacity="1" stroke="#0000FF" stroke-width="1" x1="1050" y1="34" x2="1062" y2="46"/>
<line opacity="1" stroke="#0000FF" stroke-width="1" x1="1050" y1="46" x2="1062" y2="34"/>
<line opacity="1" stroke="#0000FF" stroke-width="1" x1="1083" y1="34" x2="1095" y2="46"/>
<line opacity="1" stroke="#0000FF" stroke-width="1" x1="1083" y1="46" x2="1095" y2="34"/>
<line opacity="1" stroke="#0000FF" stroke-width="1" x1="1102" y1="34" x2="1114" y2="46"/>
<line opacity="1" stroke="#0000FF" stroke-width="1" x1="1102" y1="46" x2="1114" y2="34"/>
<line opacity="1" stroke="#0000FF" stroke-width="1" x1="1160" y1="34" x2="1172" y2="46"/>
<line opacity="1" stroke="#0000FF" stroke-width="1" x1="1160" y1="46" x2="1172" y2="34"/>
<line opacity="1" stroke="#0000FF" stroke-width="1" x1="1176" y1="34" x2="1188" y2="46"/>
<line opacity="1" stroke="#0000FF" stroke-width="1" x1="1176" y1="46" x2="1188" y2="34"/>
<line opacity="1" stroke="#0000FF" stroke-width="1" x1="1215" y1="34" x2="1227" y2="46"/>
<line opacity="1" stroke="#0000FF" stroke-width="1" x1="1215" y1="46" x2="1227" y2="34"/>
<line opacity="1" stroke="#0000FF" stroke-width="1" x1="1240" y1="34" x2="1252" y2="46"/>
<line opacity="1" stroke="#0000FF" stroke-width="1" x1="1240" y1="46" x2="1252" y2="34"/>
<line opacity="1" stroke="#0000FF" stroke-width="1" x1="1276" y1="34" x2="1288" y2="46"/>
<line opacity="1" stroke="#0000FF" stroke-width="1" x1="1276" y1="46" x2="1288" y2="34"/>
<line opacity="1" stroke="#0000FF" stroke-width="1" x1="1307" y1="34" x2="1319" y2="46"/>
<line opacity="1" stroke="#0000FF" stroke-width="1" x1="1307" y1="46" x2="1319" y2="34"/>
<line opacity="1" stroke="#0000FF" stroke-width="1" x1="1330" y1="34" x2="1342" y2="46"/>
<line opacity="1" stroke="#0000FF" stroke-width="1" x1="1330" y1="46" x2="1342" y2="34"/>
<line opacity="1" stroke="#0000FF" stroke-width="1" x1="1381" y1="34" x2="1393" y2="46"/>
<line opacity="1" stroke="#0000FF" stroke-width="1" x1="1381" y1="46" x2="1393" y2="34"/>
<line opacity="1" stroke="#0000FF" stroke-width="1" x1="1401" y1="34" x2="1413" y2="46"/>
<line opacity="1" stroke="#0000FF" stroke-width="1" x1="1401" y1="46" x2="1413" y2="34"/>
<line opacity="1" stroke="#0000FF" stroke-width="1" x1="1351" y1="34" x2="1363" y2="46"/>
<line opacity="1" stroke="#0000FF" stroke-width="1" x1="1351" y1="46" x2="1363" y2="34"/>
<line opacity="1" stroke="#0000FF" stroke-width="1" x1="1554" y1="34" x2="1566" y2="46"/>
<line opacity="1" stroke="#0000FF" stroke-width="1" x1="1554" y1="46" x2="1566" y2="34"/>
<line opacity="1" stroke="#0000FF" stroke-width="1" x1="1493" y1="34" x2="1505" y2="46"/>
<line opacity="1" stroke="#0000FF" stroke-width="1" x1="1493" y1="46" x2="1505" y2="34"/>
<line opacity="1" stroke="#0000FF" stroke-width="1" x1="1522" y1="34" x2="1534" y2="46"/>
<line opacity="1" stroke="#0000FF" stroke-width="1" x1="1522" y1="46" x2="1534" y2="34"/>
<line opacity="1" stroke="#0000FF" stroke-width="1" x1="1553" y1="34" x2="1565" y2="46"/>
<line opacity="1" stroke="#0000FF" stroke-width="1" x1="1553" y1="46" x2="1565" y2="34"/>
<line opacity="1" stroke="#0000FF" stroke-width="1" x1="1593" y1="34" x2="1605" y2="46"/>
<line opacity="1" stroke="#0000FF" stroke-width="1" x1="1593" y1="46" x2="1605" y2="34"/>
<line opacity="1" stroke="#0000FF" stroke-width="1" x1="1620" y1="34" x2="1632" y2="46"/>
<line opacity="1" stroke="#0000FF" stroke-width="1" x1="1620" y1="46" x2="1632" y2="34"/>
<line opacity="1" stroke="#0000FF" stroke-width="1" x1="1652" y1="34" x2="1664" y2="46"/>
<line opacity="1" stroke="#0000FF" stroke-width="1" x1="1652" y1="46" x2="1664" y2="34"/>
<line opacity="1" stroke="#0000FF" stroke-width="1" x1="1680" y1="34" x2="1692" y2="46"/>
<line opacity="1" stroke="#0000FF" stroke-width="1" x1="1680" y1="46" x2="1692" y2="34"/>
<line opacity="1" stroke="#0000FF" stroke-width="1" x1="1727" y1="34" x2="1739" y2="46"/>
<line opacity="1" stroke="#0000FF" stroke-width="1" x1="1727" y1="46" x2="1739" y2="34"/>
<line opacity="1" stroke="#0000FF" stroke-width="1" x1="1749" y1="34" x2="1761" y2="46"/>
<line opacity="1" stroke="#0000FF" stroke-width="1" x1="1749" y1="46" x2="1761" y2="34"/>
<line opacity="1" stroke="#0000FF" stroke-width="1" x1="1774" y1="34" x2="1786" y2="46"/>
<line opacity="1" stroke="#0000FF" stroke-width="1" x1="1774" y1="46" x2="1786" y2="34"/>
<line opacity="1" stroke="#0000FF" stroke-width="1" x1="1823" y1="34" x2="1835" y2="46"/>
<line opacity="1" stroke="#0000FF" stroke-width="1" x1="1823" y1="46" x2="1835" y2="34"/>
<line opacity="1" stroke="#0000FF" stroke-width="1" x1="1846" y1="34" x2="1858" y2="46"/>
<line opacity="1" stroke="#0000FF" stroke-width="1" x1="1846" y1="46" x2="1858" y2="34"/>
<line opacity="1" stroke="#0000FF" stroke-width="1" x1="1877" y1="34" x2="1889" y2="46"/>
<line opacity="1" stroke="#0000FF" stroke-width="1" x1="1877" y1="46" x2="1889" y2="34"/>
<line opacity="1" stroke="#0000FF" stroke-width="1" x1="1896" y1="34" x2="1908" y2="46"/>
<line opacity="1" stroke="#0000FF" stroke-width="1" x1="1896" y1="46" x2="1908" y2="34"/>
<line opacity="1" stroke="#0000FF" stroke-width="1" x1="1954" y1="34" x2="1966" y2="46"/>
<line opacity="1" stroke="#0000FF" stroke-width="1" x1="1954" y1="46" x2="1966" y2="34"/>
<line opacity="1" stroke="#0000FF" stroke-width="1" x1="1954" y1="34" x2="1966" y2="46"/>
<line opacity="1" stroke="#0000FF" stroke-width="1" x1="1954" y1="46" x2="1966" y2="34"/>
<line opacity="1" stroke="#0000FF" stroke-width="1" x1="1954" y1="34" x2="1966" y2="46"/>
<line opacity="1" stroke="#0000FF" stroke-width="1" x1="1954" y1="46" x2="1966" y2="34"/>
<line opacity="1" stroke="#0000FF" stroke-width="1" x1="1954" y1="34" x2="1966" y2="46"/>
<line opacity="1" stroke="#0000FF" stroke-width="1" x1="1954" y1="46" x2="1966" y2="34"/>
<line opacity="1" stroke="#0000FF" stroke-width="1" x1="1954" y1="34" x2="1966" y2="46"/>
<line opacity="1" stroke="#0000FF" stroke-width="1" x1="1954" y1="46" x2="1966" y2="34"/>
<line opacity="1" stroke="#0000FF" stroke-width="1" x1="1939" y1="34" x2="1951" y2="46"/>
<line opacity="1" stroke="#0000FF" stroke-width="1" x1="1939" y1="46" x2="1951" y2="34"/>
<rect x="1632" y="45" width="323" height="89" opacity="0.7" fill="#FFFFFF" stroke="none"/>
<rect x="1632" y="45" width="323" height="89" opacity="1" fill="none" stroke="#000000"/>
<text x="1672" y="65" dy="0.76em" text-anchor="start" font-family="sans-serif" font-size="19.35483870967742" opacity="1" fill="#000000">
throughput_vs_success_rate []
</text>
<text x="1672" y="95" dy="0.76em" text-anchor="start" font-family="sans-serif" font-size="19.35483870967742" opacity="1" fill="#000000">
throughput_vs_success_rate []
</text>
<line opacity="1" stroke="#FF0000" stroke-width="1" x1="1646" y1="68" x2="1658" y2="80"/>
<line opacity="1" stroke="#FF0000" stroke-width="1" x1="1646" y1="80" x2="1658" y2="68"/>
<line opacity="1" stroke="#0000FF" stroke-width="1" x1="1646" y1="98" x2="1658" y2="110"/>
<line opacity="1" stroke="#0000FF" stroke-width="1" x1="1646" y1="110" x2="1658" y2="98"/>
</svg>
