<svg width="2000" height="1000" viewBox="0 0 2000 1000" xmlns="http://www.w3.org/2000/svg">
<rect x="0" y="0" width="2000" height="1000" opacity="1" fill="#FFFFFF" stroke="none"/>
<line opacity="0.1" stroke="#000000" stroke-width="1" x1="190" y1="899" x2="190" y2="40"/>
<line opacity="0.1" stroke="#000000" stroke-width="1" x1="219" y1="899" x2="219" y2="40"/>
<line opacity="0.1" stroke="#000000" stroke-width="1" x1="249" y1="899" x2="249" y2="40"/>
<line opacity="0.1" stroke="#000000" stroke-width="1" x1="279" y1="899" x2="279" y2="40"/>
<line opacity="0.1" stroke="#000000" stroke-width="1" x1="309" y1="899" x2="309" y2="40"/>
<line opacity="0.1" stroke="#000000" stroke-width="1" x1="339" y1="899" x2="339" y2="40"/>
<line opacity="0.1" stroke="#000000" stroke-width="1" x1="369" y1="899" x2="369" y2="40"/>
<line opacity="0.1" stroke="#000000" stroke-width="1" x1="399" y1="899" x2="399" y2="40"/>
<line opacity="0.1" stroke="#000000" stroke-width="1" x1="429" y1="899" x2="429" y2="40"/>
<line opacity="0.1" stroke="#000000" stroke-width="1" x1="459" y1="899" x2="459" y2="40"/>
<line opacity="0.1" stroke="#000000" stroke-width="1" x1="489" y1="899" x2="489" y2="40"/>
<line opacity="0.1" stroke="#000000" stroke-width="1" x1="519" y1="899" x2="519" y2="40"/>
<line opacity="0.1" stroke="#000000" stroke-width="1" x1="549" y1="899" x2="549" y2="40"/>
<line opacity="0.1" stroke="#000000" stroke-width="1" x1="579" y1="899" x2="579" y2="40"/>
<line opacity="0.1" stroke="#000000" stroke-width="1" x1="609" y1="899" x2="609" y2="40"/>
<line opacity="0.1" stroke="#000000" stroke-width="1" x1="639" y1="899" x2="639" y2="40"/>
<line opacity="0.1" stroke="#000000" stroke-width="1" x1="669" y1="899" x2="669" y2="40"/>
<line opacity="0.1" stroke="#000000" stroke-width="1" x1="699" y1="899" x2="699" y2="40"/>
<line opacity="0.1" stroke="#000000" stroke-width="1" x1="729" y1="899" x2="729" y2="40"/>
<line opacity="0.1" stroke="#000000" stroke-width="1" x1="759" y1="899" x2="759" y2="40"/>
<line opacity="0.1" stroke="#000000" stroke-width="1" x1="789" y1="899" x2="789" y2="40"/>
<line opacity="0.1" stroke="#000000" stroke-width="1" x1="819" y1="899" x2="819" y2="40"/>
<line opacity="0.1" stroke="#000000" stroke-width="1" x1="849" y1="899" x2="849" y2="40"/>
<line opacity="0.1" stroke="#000000" stroke-width="1" x1="879" y1="899" x2="879" y2="40"/>
<line opacity="0.1" stroke="#000000" stroke-width="1" x1="909" y1="899" x2="909" y2="40"/>
<line opacity="0.1" stroke="#000000" stroke-width="1" x1="939" y1="899" x2="939" y2="40"/>
<line opacity="0.1" stroke="#000000" stroke-width="1" x1="969" y1="899" x2="969" y2="40"/>
<line opacity="0.1" stroke="#000000" stroke-width="1" x1="999" y1="899" x2="999" y2="40"/>
<line opacity="0.1" stroke="#000000" stroke-width="1" x1="1029" y1="899" x2="1029" y2="40"/>
<line opacity="0.1" stroke="#000000" stroke-width="1" x1="1059" y1="899" x2="1059" y2="40"/>
<line opacity="0.1" stroke="#000000" stroke-width="1" x1="1089" y1="899" x2="1089" y2="40"/>
<line opacity="0.1" stroke="#000000" stroke-width="1" x1="1119" y1="899" x2="1119" y2="40"/>
<line opacity="0.1" stroke="#000000" stroke-width="1" x1="1149" y1="899" x2="1149" y2="40"/>
<line opacity="0.1" stroke="#000000" stroke-width="1" x1="1179" y1="899" x2="1179" y2="40"/>
<line opacity="0.1" stroke="#000000" stroke-width="1" x1="1209" y1="899" x2="1209" y2="40"/>
<line opacity="0.1" stroke="#000000" stroke-width="1" x1="1239" y1="899" x2="1239" y2="40"/>
<line opacity="0.1" stroke="#000000" stroke-width="1" x1="1269" y1="899" x2="1269" y2="40"/>
<line opacity="0.1" stroke="#000000" stroke-width="1" x1="1299" y1="899" x2="1299" y2="40"/>
<line opacity="0.1" stroke="#000000" stroke-width="1" x1="1329" y1="899" x2="1329" y2="40"/>
<line opacity="0.1" stroke="#000000" stroke-width="1" x1="1359" y1="899" x2="1359" y2="40"/>
<line opacity="0.1" stroke="#000000" stroke-width="1" x1="1389" y1="899" x2="1389" y2="40"/>
<line opacity="0.1" stroke="#000000" stroke-width="1" x1="1419" y1="899" x2="1419" y2="40"/>
<line opacity="0.1" stroke="#000000" stroke-width="1" x1="1449" y1="899" x2="1449" y2="40"/>
<line opacity="0.1" stroke="#000000" stroke-width="1" x1="1479" y1="899" x2="1479" y2="40"/>
<line opacity="0.1" stroke="#000000" stroke-width="1" x1="1509" y1="899" x2="1509" y2="40"/>
<line opacity="0.1" stroke="#000000" stroke-width="1" x1="1539" y1="899" x2="1539" y2="40"/>
<line opacity="0.1" stroke="#000000" stroke-width="1" x1="1569" y1="899" x2="1569" y2="40"/>
<line opacity="0.1" stroke="#000000" stroke-width="1" x1="1599" y1="899" x2="1599" y2="40"/>
<line opacity="0.1" stroke="#000000" stroke-width="1" x1="1629" y1="899" x2="1629" y2="40"/>
<line opacity="0.1" stroke="#000000" stroke-width="1" x1="1659" y1="899" x2="1659" y2="40"/>
<line opacity="0.1" stroke="#000000" stroke-width="1" x1="1689" y1="899" x2="1689" y2="40"/>
<line opacity="0.1" stroke="#000000" stroke-width="1" x1="1719" y1="899" x2="1719" y2="40"/>
<line opacity="0.1" stroke="#000000" stroke-width="1" x1="1749" y1="899" x2="1749" y2="40"/>
<line opacity="0.1" stroke="#000000" stroke-width="1" x1="1779" y1="899" x2="1779" y2="40"/>
<line opacity="0.1" stroke="#000000" stroke-width="1" x1="1809" y1="899" x2="1809" y2="40"/>
<line opacity="0.1" stroke="#000000" stroke-width="1" x1="1839" y1="899" x2="1839" y2="40"/>
<line opacity="0.1" stroke="#000000" stroke-width="1" x1="1869" y1="899" x2="1869" y2="40"/>
<line opacity="0.1" stroke="#000000" stroke-width="1" x1="1898" y1="899" x2="1898" y2="40"/>
<line opacity="0.1" stroke="#000000" stroke-width="1" x1="1928" y1="899" x2="1928" y2="40"/>
<line opacity="0.1" stroke="#000000" stroke-width="1" x1="1958" y1="899" x2="1958" y2="40"/>
<line opacity="0.1" stroke="#000000" stroke-width="1" x1="190" y1="875" x2="1959" y2="875"/>
<line opacity="0.1" stroke="#000000" stroke-width="1" x1="190" y1="811" x2="1959" y2="811"/>
<line opacity="0.1" stroke="#000000" stroke-width="1" x1="190" y1="753" x2="1959" y2="753"/>
<line opacity="0.1" stroke="#000000" stroke-width="1" x1="190" y1="699" x2="1959" y2="699"/>
<line opacity="0.1" stroke="#000000" stroke-width="1" x1="190" y1="650" x2="1959" y2="650"/>
<line opacity="0.1" stroke="#000000" stroke-width="1" x1="190" y1="604" x2="1959" y2="604"/>
<line opacity="0.1" stroke="#000000" stroke-width="1" x1="190" y1="560" x2="1959" y2="560"/>
<line opacity="0.1" stroke="#000000" stroke-width="1" x1="190" y1="520" x2="1959" y2="520"/>
<line opacity="0.1" stroke="#000000" stroke-width="1" x1="190" y1="482" x2="1959" y2="482"/>
<line opacity="0.1" stroke="#000000" stroke-width="1" x1="190" y1="446" x2="1959" y2="446"/>
<line opacity="0.1" stroke="#000000" stroke-width="1" x1="190" y1="411" x2="1959" y2="411"/>
<line opacity="0.1" stroke="#000000" stroke-width="1" x1="190" y1="379" x2="1959" y2="379"/>
<line opacity="0.1" stroke="#000000" stroke-width="1" x1="190" y1="348" x2="1959" y2="348"/>
<line opacity="0.1" stroke="#000000" stroke-width="1" x1="190" y1="318" x2="1959" y2="318"/>
<line opacity="0.1" stroke="#000000" stroke-width="1" x1="190" y1="290" x2="1959" y2="290"/>
<line opacity="0.1" stroke="#000000" stroke-width="1" x1="190" y1="262" x2="1959" y2="262"/>
<line opacity="0.1" stroke="#000000" stroke-width="1" x1="190" y1="236" x2="1959" y2="236"/>
<line opacity="0.1" stroke="#000000" stroke-width="1" x1="190" y1="211" x2="1959" y2="211"/>
<line opacity="0.1" stroke="#000000" stroke-width="1" x1="190" y1="187" x2="1959" y2="187"/>
<line opacity="0.1" stroke="#000000" stroke-width="1" x1="190" y1="163" x2="1959" y2="163"/>
<line opacity="0.1" stroke="#000000" stroke-width="1" x1="190" y1="140" x2="1959" y2="140"/>
<line opacity="0.1" stroke="#000000" stroke-width="1" x1="190" y1="119" x2="1959" y2="119"/>
<line opacity="0.1" stroke="#000000" stroke-width="1" x1="190" y1="97" x2="1959" y2="97"/>
<line opacity="0.1" stroke="#000000" stroke-width="1" x1="190" y1="77" x2="1959" y2="77"/>
<line opacity="0.1" stroke="#000000" stroke-width="1" x1="190" y1="57" x2="1959" y2="57"/>
<text x="40" y="470" dy="0.76em" text-anchor="middle" font-family="sans-serif" font-size="25.806451612903228" opacity="1" fill="#000000" transform="rotate(270, 40, 470)">
response time [ms]
</text>
<text x="1075" y="960" dy="-0.5ex" text-anchor="middle" font-family="sans-serif" font-size="25.806451612903228" opacity="1" fill="#000000">
time [s]
</text>
<line opacity="0.2" stroke="#000000" stroke-width="1" x1="190" y1="899" x2="190" y2="40"/>
<line opacity="0.2" stroke="#000000" stroke-width="1" x1="489" y1="899" x2="489" y2="40"/>
<line opacity="0.2" stroke="#000000" stroke-width="1" x1="789" y1="899" x2="789" y2="40"/>
<line opacity="0.2" stroke="#000000" stroke-width="1" x1="1089" y1="899" x2="1089" y2="40"/>
<line opacity="0.2" stroke="#000000" stroke-width="1" x1="1389" y1="899" x2="1389" y2="40"/>
<line opacity="0.2" stroke="#000000" stroke-width="1" x1="1689" y1="899" x2="1689" y2="40"/>
<line opacity="0.2" stroke="#000000" stroke-width="1" x1="190" y1="875" x2="1959" y2="875"/>
<line opacity="0.2" stroke="#000000" stroke-width="1" x1="190" y1="411" x2="1959" y2="411"/>
<line opacity="0.2" stroke="#000000" stroke-width="1" x1="190" y1="140" x2="1959" y2="140"/>
<polyline fill="none" opacity="1" stroke="#000000" stroke-width="1" points="189,40 189,899 "/>
<text x="180" y="875" dy="0.5ex" text-anchor="end" font-family="sans-serif" font-size="19.35483870967742" opacity="1" fill="#000000">
100.0
</text>
<polyline fill="none" opacity="1" stroke="#000000" stroke-width="1" points="184,875 189,875 "/>
<text x="180" y="411" dy="0.5ex" text-anchor="end" font-family="sans-serif" font-size="19.35483870967742" opacity="1" fill="#000000">
200.0
</text>
<polyline fill="none" opacity="1" stroke="#000000" stroke-width="1" points="184,411 189,411 "/>
<text x="180" y="140" dy="0.5ex" text-anchor="end" font-family="sans-serif" font-size="19.35483870967742" opacity="1" fill="#000000">
300.0
</text>
<polyline fill="none" opacity="1" stroke="#000000" stroke-width="1" points="184,140 189,140 "/>
<polyline fill="none" opacity="1" stroke="#000000" stroke-width="1" points="190,900 1959,900 "/>
<text x="190" y="910" dy="0.76em" text-anchor="middle" font-family="sans-serif" font-size="19.35483870967742" opacity="1" fill="#000000">
0.0
</text>
<polyline fill="none" opacity="1" stroke="#000000" stroke-width="1" points="190,900 190,905 "/>
<text x="489" y="910" dy="0.76em" text-anchor="middle" font-family="sans-serif" font-size="19.35483870967742" opacity="1" fill="#000000">
10.0
</text>
<polyline fill="none" opacity="1" stroke="#000000" stroke-width="1" points="489,900 489,905 "/>
<text x="789" y="910" dy="0.76em" text-anchor="middle" font-family="sans-serif" font-size="19.35483870967742" opacity="1" fill="#000000">
20.0
</text>
<polyline fill="none" opacity="1" stroke="#000000" stroke-width="1" points="789,900 789,905 "/>
<text x="1089" y="910" dy="0.76em" text-anchor="middle" font-family="sans-serif" font-size="19.35483870967742" opacity="1" fill="#000000">
30.0
</text>
<polyline fill="none" opacity="1" stroke="#000000" stroke-width="1" points="1089,900 1089,905 "/>
<text x="1389" y="910" dy="0.76em" text-anchor="middle" font-family="sans-serif" font-size="19.35483870967742" opacity="1" fill="#000000">
40.0
</text>
<polyline fill="none" opacity="1" stroke="#000000" stroke-width="1" points="1389,900 1389,905 "/>
<text x="1689" y="910" dy="0.76em" text-anchor="middle" font-family="sans-serif" font-size="19.35483870967742" opacity="1" fill="#000000">
50.0
</text>
<polyline fill="none" opacity="1" stroke="#000000" stroke-width="1" points="1689,900 1689,905 "/>
<polyline fill="none" opacity="1" stroke="#FF0000" stroke-width="3" points="190,283 220,839 249,824 280,831 309,883 339,891 370,869 399,848 430,871 459,834 490,879 520,882 550,886 579,728 609,859 639,860 669,860 699,791 729,844 759,470 789,842 819,860 849,727 879,840 909,861 939,862 969,889 999,852 1029,839 1059,868 1089,879 1119,878 1149,798 1179,824 1210,865 1239,827 1269,899 1299,736 1329,877 1359,842 1389,819 1419,563 1449,540 1479,883 1509,799 1539,855 1569,829 1599,871 1629,844 1659,885 1689,884 1719,867 1749,835 1779,821 1809,895 1839,794 1869,850 1899,893 1929,828 1959,861 "/>
<circle cx="190" cy="283" r="6" opacity="1" fill="none" stroke="#FF0000" stroke-width="1"/>
<circle cx="220" cy="839" r="6" opacity="1" fill="none" stroke="#FF0000" stroke-width="1"/>
<circle cx="249" cy="824" r="6" opacity="1" fill="none" stroke="#FF0000" stroke-width="1"/>
<circle cx="280" cy="831" r="6" opacity="1" fill="none" stroke="#FF0000" stroke-width="1"/>
<circle cx="309" cy="883" r="6" opacity="1" fill="none" stroke="#FF0000" stroke-width="1"/>
<circle cx="339" cy="891" r="6" opacity="1" fill="none" stroke="#FF0000" stroke-width="1"/>
<circle cx="370" cy="869" r="6" opacity="1" fill="none" stroke="#FF0000" stroke-width="1"/>
<circle cx="399" cy="848" r="6" opacity="1" fill="none" stroke="#FF0000" stroke-width="1"/>
<circle cx="430" cy="871" r="6" opacity="1" fill="none" stroke="#FF0000" stroke-width="1"/>
<circle cx="459" cy="834" r="6" opacity="1" fill="none" stroke="#FF0000" stroke-width="1"/>
<circle cx="490" cy="879" r="6" opacity="1" fill="none" stroke="#FF0000" stroke-width="1"/>
<circle cx="520" cy="882" r="6" opacity="1" fill="none" stroke="#FF0000" stroke-width="1"/>
<circle cx="550" cy="886" r="6" opacity="1" fill="none" stroke="#FF0000" stroke-width="1"/>
<circle cx="579" cy="728" r="6" opacity="1" fill="none" stroke="#FF0000" stroke-width="1"/>
<circle cx="609" cy="859" r="6" opacity="1" fill="none" stroke="#FF0000" stroke-width="1"/>
<circle cx="639" cy="860" r="6" opacity="1" fill="none" stroke="#FF0000" stroke-width="1"/>
<circle cx="669" cy="860" r="6" opacity="1" fill="none" stroke="#FF0000" stroke-width="1"/>
<circle cx="699" cy="791" r="6" opacity="1" fill="none" stroke="#FF0000" stroke-width="1"/>
<circle cx="729" cy="844" r="6" opacity="1" fill="none" stroke="#FF0000" stroke-width="1"/>
<circle cx="759" cy="470" r="6" opacity="1" fill="none" stroke="#FF0000" stroke-width="1"/>
<circle cx="789" cy="842" r="6" opacity="1" fill="none" stroke="#FF0000" stroke-width="1"/>
<circle cx="819" cy="860" r="6" opacity="1" fill="none" stroke="#FF0000" stroke-width="1"/>
<circle cx="849" cy="727" r="6" opacity="1" fill="none" stroke="#FF0000" stroke-width="1"/>
<circle cx="879" cy="840" r="6" opacity="1" fill="none" stroke="#FF0000" stroke-width="1"/>
<circle cx="909" cy="861" r="6" opacity="1" fill="none" stroke="#FF0000" stroke-width="1"/>
<circle cx="939" cy="862" r="6" opacity="1" fill="none" stroke="#FF0000" stroke-width="1"/>
<circle cx="969" cy="889" r="6" opacity="1" fill="none" stroke="#FF0000" stroke-width="1"/>
<circle cx="999" cy="852" r="6" opacity="1" fill="none" stroke="#FF0000" stroke-width="1"/>
<circle cx="1029" cy="839" r="6" opacity="1" fill="none" stroke="#FF0000" stroke-width="1"/>
<circle cx="1059" cy="868" r="6" opacity="1" fill="none" stroke="#FF0000" stroke-width="1"/>
<circle cx="1089" cy="879" r="6" opacity="1" fill="none" stroke="#FF0000" stroke-width="1"/>
<circle cx="1119" cy="878" r="6" opacity="1" fill="none" stroke="#FF0000" stroke-width="1"/>
<circle cx="1149" cy="798" r="6" opacity="1" fill="none" stroke="#FF0000" stroke-width="1"/>
<circle cx="1179" cy="824" r="6" opacity="1" fill="none" stroke="#FF0000" stroke-width="1"/>
<circle cx="1210" cy="865" r="6" opacity="1" fill="none" stroke="#FF0000" stroke-width="1"/>
<circle cx="1239" cy="827" r="6" opacity="1" fill="none" stroke="#FF0000" stroke-width="1"/>
<circle cx="1269" cy="899" r="6" opacity="1" fill="none" stroke="#FF0000" stroke-width="1"/>
<circle cx="1299" cy="736" r="6" opacity="1" fill="none" stroke="#FF0000" stroke-width="1"/>
<circle cx="1329" cy="877" r="6" opacity="1" fill="none" stroke="#FF0000" stroke-width="1"/>
<circle cx="1359" cy="842" r="6" opacity="1" fill="none" stroke="#FF0000" stroke-width="1"/>
<circle cx="1389" cy="819" r="6" opacity="1" fill="none" stroke="#FF0000" stroke-width="1"/>
<circle cx="1419" cy="563" r="6" opacity="1" fill="none" stroke="#FF0000" stroke-width="1"/>
<circle cx="1449" cy="540" r="6" opacity="1" fill="none" stroke="#FF0000" stroke-width="1"/>
<circle cx="1479" cy="883" r="6" opacity="1" fill="none" stroke="#FF0000" stroke-width="1"/>
<circle cx="1509" cy="799" r="6" opacity="1" fill="none" stroke="#FF0000" stroke-width="1"/>
<circle cx="1539" cy="855" r="6" opacity="1" fill="none" stroke="#FF0000" stroke-width="1"/>
<circle cx="1569" cy="829" r="6" opacity="1" fill="none" stroke="#FF0000" stroke-width="1"/>
<circle cx="1599" cy="871" r="6" opacity="1" fill="none" stroke="#FF0000" stroke-width="1"/>
<circle cx="1629" cy="844" r="6" opacity="1" fill="none" stroke="#FF0000" stroke-width="1"/>
<circle cx="1659" cy="885" r="6" opacity="1" fill="none" stroke="#FF0000" stroke-width="1"/>
<circle cx="1689" cy="884" r="6" opacity="1" fill="none" stroke="#FF0000" stroke-width="1"/>
<circle cx="1719" cy="867" r="6" opacity="1" fill="none" stroke="#FF0000" stroke-width="1"/>
<circle cx="1749" cy="835" r="6" opacity="1" fill="none" stroke="#FF0000" stroke-width="1"/>
<circle cx="1779" cy="821" r="6" opacity="1" fill="none" stroke="#FF0000" stroke-width="1"/>
<circle cx="1809" cy="895" r="6" opacity="1" fill="none" stroke="#FF0000" stroke-width="1"/>
<circle cx="1839" cy="794" r="6" opacity="1" fill="none" stroke="#FF0000" stroke-width="1"/>
<circle cx="1869" cy="850" r="6" opacity="1" fill="none" stroke="#FF0000" stroke-width="1"/>
<circle cx="1899" cy="893" r="6" opacity="1" fill="none" stroke="#FF0000" stroke-width="1"/>
<circle cx="1929" cy="828" r="6" opacity="1" fill="none" stroke="#FF0000" stroke-width="1"/>
<circle cx="1959" cy="861" r="6" opacity="1" fill="none" stroke="#FF0000" stroke-width="1"/>
<polyline fill="none" opacity="1" stroke="#0000FF" stroke-width="3" points="190,290 220,807 249,784 280,871 310,807 339,853 369,817 399,837 429,813 460,878 489,865 519,868 549,874 580,758 609,811 639,831 669,833 699,899 729,881 759,839 789,884 819,844 849,729 879,831 909,862 939,890 969,875 999,853 1029,886 1059,872 1089,889 1119,845 1149,821 1179,788 1209,875 1239,889 1269,850 1299,826 1329,347 1361,40 1389,856 1419,889 1449,842 1479,839 1509,875 1539,825 1569,833 1599,729 1629,829 1659,869 1689,882 1719,783 1749,831 1779,861 1809,874 1839,872 1869,878 1899,821 1929,870 1958,883 "/>
<circle cx="190" cy="290" r="6" opacity="1" fill="none" stroke="#0000FF" stroke-width="1"/>
<circle cx="220" cy="807" r="6" opacity="1" fill="none" stroke="#0000FF" stroke-width="1"/>
<circle cx="249" cy="784" r="6" opacity="1" fill="none" stroke="#0000FF" stroke-width="1"/>
<circle cx="280" cy="871" r="6" opacity="1" fill="none" stroke="#0000FF" stroke-width="1"/>
<circle cx="310" cy="807" r="6" opacity="1" fill="none" stroke="#0000FF" stroke-width="1"/>
<circle cx="339" cy="853" r="6" opacity="1" fill="none" stroke="#0000FF" stroke-width="1"/>
<circle cx="369" cy="817" r="6" opacity="1" fill="none" stroke="#0000FF" stroke-width="1"/>
<circle cx="399" cy="837" r="6" opacity="1" fill="none" stroke="#0000FF" stroke-width="1"/>
<circle cx="429" cy="813" r="6" opacity="1" fill="none" stroke="#0000FF" stroke-width="1"/>
<circle cx="460" cy="878" r="6" opacity="1" fill="none" stroke="#0000FF" stroke-width="1"/>
<circle cx="489" cy="865" r="6" opacity="1" fill="none" stroke="#0000FF" stroke-width="1"/>
<circle cx="519" cy="868" r="6" opacity="1" fill="none" stroke="#0000FF" stroke-width="1"/>
<circle cx="549" cy="874" r="6" opacity="1" fill="none" stroke="#0000FF" stroke-width="1"/>
<circle cx="580" cy="758" r="6" opacity="1" fill="none" stroke="#0000FF" stroke-width="1"/>
<circle cx="609" cy="811" r="6" opacity="1" fill="none" stroke="#0000FF" stroke-width="1"/>
<circle cx="639" cy="831" r="6" opacity="1" fill="none" stroke="#0000FF" stroke-width="1"/>
<circle cx="669" cy="833" r="6" opacity="1" fill="none" stroke="#0000FF" stroke-width="1"/>
<circle cx="699" cy="899" r="6" opacity="1" fill="none" stroke="#0000FF" stroke-width="1"/>
<circle cx="729" cy="881" r="6" opacity="1" fill="none" stroke="#0000FF" stroke-width="1"/>
<circle cx="759" cy="839" r="6" opacity="1" fill="none" stroke="#0000FF" stroke-width="1"/>
<circle cx="789" cy="884" r="6" opacity="1" fill="none" stroke="#0000FF" stroke-width="1"/>
<circle cx="819" cy="844" r="6" opacity="1" fill="none" stroke="#0000FF" stroke-width="1"/>
<circle cx="849" cy="729" r="6" opacity="1" fill="none" stroke="#0000FF" stroke-width="1"/>
<circle cx="879" cy="831" r="6" opacity="1" fill="none" stroke="#0000FF" stroke-width="1"/>
<circle cx="909" cy="862" r="6" opacity="1" fill="none" stroke="#0000FF" stroke-width="1"/>
<circle cx="939" cy="890" r="6" opacity="1" fill="none" stroke="#0000FF" stroke-width="1"/>
<circle cx="969" cy="875" r="6" opacity="1" fill="none" stroke="#0000FF" stroke-width="1"/>
<circle cx="999" cy="853" r="6" opacity="1" fill="none" stroke="#0000FF" stroke-width="1"/>
<circle cx="1029" cy="886" r="6" opacity="1" fill="none" stroke="#0000FF" stroke-width="1"/>
<circle cx="1059" cy="872" r="6" opacity="1" fill="none" stroke="#0000FF" stroke-width="1"/>
<circle cx="1089" cy="889" r="6" opacity="1" fill="none" stroke="#0000FF" stroke-width="1"/>
<circle cx="1119" cy="845" r="6" opacity="1" fill="none" stroke="#0000FF" stroke-width="1"/>
<circle cx="1149" cy="821" r="6" opacity="1" fill="none" stroke="#0000FF" stroke-width="1"/>
<circle cx="1179" cy="788" r="6" opacity="1" fill="none" stroke="#0000FF" stroke-width="1"/>
<circle cx="1209" cy="875" r="6" opacity="1" fill="none" stroke="#0000FF" stroke-width="1"/>
<circle cx="1239" cy="889" r="6" opacity="1" fill="none" stroke="#0000FF" stroke-width="1"/>
<circle cx="1269" cy="850" r="6" opacity="1" fill="none" stroke="#0000FF" stroke-width="1"/>
<circle cx="1299" cy="826" r="6" opacity="1" fill="none" stroke="#0000FF" stroke-width="1"/>
<circle cx="1329" cy="347" r="6" opacity="1" fill="none" stroke="#0000FF" stroke-width="1"/>
<circle cx="1361" cy="40" r="6" opacity="1" fill="none" stroke="#0000FF" stroke-width="1"/>
<circle cx="1389" cy="856" r="6" opacity="1" fill="none" stroke="#0000FF" stroke-width="1"/>
<circle cx="1419" cy="889" r="6" opacity="1" fill="none" stroke="#0000FF" stroke-width="1"/>
<circle cx="1449" cy="842" r="6" opacity="1" fill="none" stroke="#0000FF" stroke-width="1"/>
<circle cx="1479" cy="839" r="6" opacity="1" fill="none" stroke="#0000FF" stroke-width="1"/>
<circle cx="1509" cy="875" r="6" opacity="1" fill="none" stroke="#0000FF" stroke-width="1"/>
<circle cx="1539" cy="825" r="6" opacity="1" fill="none" stroke="#0000FF" stroke-width="1"/>
<circle cx="1569" cy="833" r="6" opacity="1" fill="none" stroke="#0000FF" stroke-width="1"/>
<circle cx="1599" cy="729" r="6" opacity="1" fill="none" stroke="#0000FF" stroke-width="1"/>
<circle cx="1629" cy="829" r="6" opacity="1" fill="none" stroke="#0000FF" stroke-width="1"/>
<circle cx="1659" cy="869" r="6" opacity="1" fill="none" stroke="#0000FF" stroke-width="1"/>
<circle cx="1689" cy="882" r="6" opacity="1" fill="none" stroke="#0000FF" stroke-width="1"/>
<circle cx="1719" cy="783" r="6" opacity="1" fill="none" stroke="#0000FF" stroke-width="1"/>
<circle cx="1749" cy="831" r="6" opacity="1" fill="none" stroke="#0000FF" stroke-width="1"/>
<circle cx="1779" cy="861" r="6" opacity="1" fill="none" stroke="#0000FF" stroke-width="1"/>
<circle cx="1809" cy="874" r="6" opacity="1" fill="none" stroke="#0000FF" stroke-width="1"/>
<circle cx="1839" cy="872" r="6" opacity="1" fill="none" stroke="#0000FF" stroke-width="1"/>
<circle cx="1869" cy="878" r="6" opacity="1" fill="none" stroke="#0000FF" stroke-width="1"/>
<circle cx="1899" cy="821" r="6" opacity="1" fill="none" stroke="#0000FF" stroke-width="1"/>
<circle cx="1929" cy="870" r="6" opacity="1" fill="none" stroke="#0000FF" stroke-width="1"/>
<circle cx="1958" cy="883" r="6" opacity="1" fill="none" stroke="#0000FF" stroke-width="1"/>
<rect x="1845" y="45" width="110" height="89" opacity="0.7" fill="#FFFFFF" stroke="none"/>
<rect x="1845" y="45" width="110" height="89" opacity="1" fill="none" stroke="#000000"/>
<text x="1885" y="65" dy="0.76em" text-anchor="start" font-family="sans-serif" font-size="19.35483870967742" opacity="1" fill="#000000">
P99 []
</text>
<text x="1885" y="95" dy="0.76em" text-anchor="start" font-family="sans-serif" font-size="19.35483870967742" opacity="1" fill="#000000">
P99 []
</text>
<circle cx="1865" cy="74" r="6" opacity="1" fill="none" stroke="#FF0000" stroke-width="1"/>
<circle cx="1865" cy="104" r="6" opacity="1" fill="none" stroke="#0000FF" stroke-width="1"/>
</svg>
