<svg width="2000" height="1000" viewBox="0 0 2000 1000" xmlns="http://www.w3.org/2000/svg">
<rect x="0" y="0" width="2000" height="1000" opacity="1" fill="#FFFFFF" stroke="none"/>
<line opacity="0.1" stroke="#000000" stroke-width="1" x1="190" y1="899" x2="190" y2="40"/>
<line opacity="0.1" stroke="#000000" stroke-width="1" x1="219" y1="899" x2="219" y2="40"/>
<line opacity="0.1" stroke="#000000" stroke-width="1" x1="249" y1="899" x2="249" y2="40"/>
<line opacity="0.1" stroke="#000000" stroke-width="1" x1="279" y1="899" x2="279" y2="40"/>
<line opacity="0.1" stroke="#000000" stroke-width="1" x1="309" y1="899" x2="309" y2="40"/>
<line opacity="0.1" stroke="#000000" stroke-width="1" x1="339" y1="899" x2="339" y2="40"/>
<line opacity="0.1" stroke="#000000" stroke-width="1" x1="369" y1="899" x2="369" y2="40"/>
<line opacity="0.1" stroke="#000000" stroke-width="1" x1="399" y1="899" x2="399" y2="40"/>
<line opacity="0.1" stroke="#000000" stroke-width="1" x1="429" y1="899" x2="429" y2="40"/>
<line opacity="0.1" stroke="#000000" stroke-width="1" x1="459" y1="899" x2="459" y2="40"/>
<line opacity="0.1" stroke="#000000" stroke-width="1" x1="489" y1="899" x2="489" y2="40"/>
<line opacity="0.1" stroke="#000000" stroke-width="1" x1="519" y1="899" x2="519" y2="40"/>
<line opacity="0.1" stroke="#000000" stroke-width="1" x1="549" y1="899" x2="549" y2="40"/>
<line opacity="0.1" stroke="#000000" stroke-width="1" x1="579" y1="899" x2="579" y2="40"/>
<line opacity="0.1" stroke="#000000" stroke-width="1" x1="609" y1="899" x2="609" y2="40"/>
<line opacity="0.1" stroke="#000000" stroke-width="1" x1="639" y1="899" x2="639" y2="40"/>
<line opacity="0.1" stroke="#000000" stroke-width="1" x1="669" y1="899" x2="669" y2="40"/>
<line opacity="0.1" stroke="#000000" stroke-width="1" x1="699" y1="899" x2="699" y2="40"/>
<line opacity="0.1" stroke="#000000" stroke-width="1" x1="729" y1="899" x2="729" y2="40"/>
<line opacity="0.1" stroke="#000000" stroke-width="1" x1="759" y1="899" x2="759" y2="40"/>
<line opacity="0.1" stroke="#000000" stroke-width="1" x1="789" y1="899" x2="789" y2="40"/>
<line opacity="0.1" stroke="#000000" stroke-width="1" x1="819" y1="899" x2="819" y2="40"/>
<line opacity="0.1" stroke="#000000" stroke-width="1" x1="849" y1="899" x2="849" y2="40"/>
<line opacity="0.1" stroke="#000000" stroke-width="1" x1="879" y1="899" x2="879" y2="40"/>
<line opacity="0.1" stroke="#000000" stroke-width="1" x1="909" y1="899" x2="909" y2="40"/>
<line opacity="0.1" stroke="#000000" stroke-width="1" x1="939" y1="899" x2="939" y2="40"/>
<line opacity="0.1" stroke="#000000" stroke-width="1" x1="969" y1="899" x2="969" y2="40"/>
<line opacity="0.1" stroke="#000000" stroke-width="1" x1="999" y1="899" x2="999" y2="40"/>
<line opacity="0.1" stroke="#000000" stroke-width="1" x1="1029" y1="899" x2="1029" y2="40"/>
<line opacity="0.1" stroke="#000000" stroke-width="1" x1="1059" y1="899" x2="1059" y2="40"/>
<line opacity="0.1" stroke="#000000" stroke-width="1" x1="1089" y1="899" x2="1089" y2="40"/>
<line opacity="0.1" stroke="#000000" stroke-width="1" x1="1119" y1="899" x2="1119" y2="40"/>
<line opacity="0.1" stroke="#000000" stroke-width="1" x1="1149" y1="899" x2="1149" y2="40"/>
<line opacity="0.1" stroke="#000000" stroke-width="1" x1="1179" y1="899" x2="1179" y2="40"/>
<line opacity="0.1" stroke="#000000" stroke-width="1" x1="1209" y1="899" x2="1209" y2="40"/>
<line opacity="0.1" stroke="#000000" stroke-width="1" x1="1239" y1="899" x2="1239" y2="40"/>
<line opacity="0.1" stroke="#000000" stroke-width="1" x1="1269" y1="899" x2="1269" y2="40"/>
<line opacity="0.1" stroke="#000000" stroke-width="1" x1="1299" y1="899" x2="1299" y2="40"/>
<line opacity="0.1" stroke="#000000" stroke-width="1" x1="1329" y1="899" x2="1329" y2="40"/>
<line opacity="0.1" stroke="#000000" stroke-width="1" x1="1359" y1="899" x2="1359" y2="40"/>
<line opacity="0.1" stroke="#000000" stroke-width="1" x1="1389" y1="899" x2="1389" y2="40"/>
<line opacity="0.1" stroke="#000000" stroke-width="1" x1="1419" y1="899" x2="1419" y2="40"/>
<line opacity="0.1" stroke="#000000" stroke-width="1" x1="1449" y1="899" x2="1449" y2="40"/>
<line opacity="0.1" stroke="#000000" stroke-width="1" x1="1479" y1="899" x2="1479" y2="40"/>
<line opacity="0.1" stroke="#000000" stroke-width="1" x1="1509" y1="899" x2="1509" y2="40"/>
<line opacity="0.1" stroke="#000000" stroke-width="1" x1="1539" y1="899" x2="1539" y2="40"/>
<line opacity="0.1" stroke="#000000" stroke-width="1" x1="1569" y1="899" x2="1569" y2="40"/>
<line opacity="0.1" stroke="#000000" stroke-width="1" x1="1599" y1="899" x2="1599" y2="40"/>
<line opacity="0.1" stroke="#000000" stroke-width="1" x1="1629" y1="899" x2="1629" y2="40"/>
<line opacity="0.1" stroke="#000000" stroke-width="1" x1="1659" y1="899" x2="1659" y2="40"/>
<line opacity="0.1" stroke="#000000" stroke-width="1" x1="1689" y1="899" x2="1689" y2="40"/>
<line opacity="0.1" stroke="#000000" stroke-width="1" x1="1719" y1="899" x2="1719" y2="40"/>
<line opacity="0.1" stroke="#000000" stroke-width="1" x1="1749" y1="899" x2="1749" y2="40"/>
<line opacity="0.1" stroke="#000000" stroke-width="1" x1="1779" y1="899" x2="1779" y2="40"/>
<line opacity="0.1" stroke="#000000" stroke-width="1" x1="1809" y1="899" x2="1809" y2="40"/>
<line opacity="0.1" stroke="#000000" stroke-width="1" x1="1839" y1="899" x2="1839" y2="40"/>
<line opacity="0.1" stroke="#000000" stroke-width="1" x1="1869" y1="899" x2="1869" y2="40"/>
<line opacity="0.1" stroke="#000000" stroke-width="1" x1="1898" y1="899" x2="1898" y2="40"/>
<line opacity="0.1" stroke="#000000" stroke-width="1" x1="1928" y1="899" x2="1928" y2="40"/>
<line opacity="0.1" stroke="#000000" stroke-width="1" x1="1958" y1="899" x2="1958" y2="40"/>
<line opacity="0.1" stroke="#000000" stroke-width="1" x1="190" y1="899" x2="1959" y2="899"/>
<line opacity="0.1" stroke="#000000" stroke-width="1" x1="190" y1="889" x2="1959" y2="889"/>
<line opacity="0.1" stroke="#000000" stroke-width="1" x1="190" y1="878" x2="1959" y2="878"/>
<line opacity="0.1" stroke="#000000" stroke-width="1" x1="190" y1="868" x2="1959" y2="868"/>
<line opacity="0.1" stroke="#000000" stroke-width="1" x1="190" y1="857" x2="1959" y2="857"/>
<line opacity="0.1" stroke="#000000" stroke-width="1" x1="190" y1="846" x2="1959" y2="846"/>
<line opacity="0.1" stroke="#000000" stroke-width="1" x1="190" y1="836" x2="1959" y2="836"/>
<line opacity="0.1" stroke="#000000" stroke-width="1" x1="190" y1="825" x2="1959" y2="825"/>
<line opacity="0.1" stroke="#000000" stroke-width="1" x1="190" y1="815" x2="1959" y2="815"/>
<line opacity="0.1" stroke="#000000" stroke-width="1" x1="190" y1="804" x2="1959" y2="804"/>
<line opacity="0.1" stroke="#000000" stroke-width="1" x1="190" y1="793" x2="1959" y2="793"/>
<line opacity="0.1" stroke="#000000" stroke-width="1" x1="190" y1="783" x2="1959" y2="783"/>
<line opacity="0.1" stroke="#000000" stroke-width="1" x1="190" y1="772" x2="1959" y2="772"/>
<line opacity="0.1" stroke="#000000" stroke-width="1" x1="190" y1="762" x2="1959" y2="762"/>
<line opacity="0.1" stroke="#000000" stroke-width="1" x1="190" y1="751" x2="1959" y2="751"/>
<line opacity="0.1" stroke="#000000" stroke-width="1" x1="190" y1="740" x2="1959" y2="740"/>
<line opacity="0.1" stroke="#000000" stroke-width="1" x1="190" y1="730" x2="1959" y2="730"/>
<line opacity="0.1" stroke="#000000" stroke-width="1" x1="190" y1="719" x2="1959" y2="719"/>
<line opacity="0.1" stroke="#000000" stroke-width="1" x1="190" y1="709" x2="1959" y2="709"/>
<line opacity="0.1" stroke="#000000" stroke-width="1" x1="190" y1="698" x2="1959" y2="698"/>
<line opacity="0.1" stroke="#000000" stroke-width="1" x1="190" y1="687" x2="1959" y2="687"/>
<line opacity="0.1" stroke="#000000" stroke-width="1" x1="190" y1="677" x2="1959" y2="677"/>
<line opacity="0.1" stroke="#000000" stroke-width="1" x1="190" y1="666" x2="1959" y2="666"/>
<line opacity="0.1" stroke="#000000" stroke-width="1" x1="190" y1="656" x2="1959" y2="656"/>
<line opacity="0.1" stroke="#000000" stroke-width="1" x1="190" y1="645" x2="1959" y2="645"/>
<line opacity="0.1" stroke="#000000" stroke-width="1" x1="190" y1="634" x2="1959" y2="634"/>
<line opacity="0.1" stroke="#000000" stroke-width="1" x1="190" y1="624" x2="1959" y2="624"/>
<line opacity="0.1" stroke="#000000" stroke-width="1" x1="190" y1="613" x2="1959" y2="613"/>
<line opacity="0.1" stroke="#000000" stroke-width="1" x1="190" y1="603" x2="1959" y2="603"/>
<line opacity="0.1" stroke="#000000" stroke-width="1" x1="190" y1="592" x2="1959" y2="592"/>
<line opacity="0.1" stroke="#000000" stroke-width="1" x1="190" y1="581" x2="1959" y2="581"/>
<line opacity="0.1" stroke="#000000" stroke-width="1" x1="190" y1="571" x2="1959" y2="571"/>
<line opacity="0.1" stroke="#000000" stroke-width="1" x1="190" y1="560" x2="1959" y2="560"/>
<line opacity="0.1" stroke="#000000" stroke-width="1" x1="190" y1="549" x2="1959" y2="549"/>
<line opacity="0.1" stroke="#000000" stroke-width="1" x1="190" y1="539" x2="1959" y2="539"/>
<line opacity="0.1" stroke="#000000" stroke-width="1" x1="190" y1="528" x2="1959" y2="528"/>
<line opacity="0.1" stroke="#000000" stroke-width="1" x1="190" y1="518" x2="1959" y2="518"/>
<line opacity="0.1" stroke="#000000" stroke-width="1" x1="190" y1="507" x2="1959" y2="507"/>
<line opacity="0.1" stroke="#000000" stroke-width="1" x1="190" y1="496" x2="1959" y2="496"/>
<line opacity="0.1" stroke="#000000" stroke-width="1" x1="190" y1="486" x2="1959" y2="486"/>
<line opacity="0.1" stroke="#000000" stroke-width="1" x1="190" y1="475" x2="1959" y2="475"/>
<line opacity="0.1" stroke="#000000" stroke-width="1" x1="190" y1="465" x2="1959" y2="465"/>
<line opacity="0.1" stroke="#000000" stroke-width="1" x1="190" y1="454" x2="1959" y2="454"/>
<line opacity="0.1" stroke="#000000" stroke-width="1" x1="190" y1="443" x2="1959" y2="443"/>
<line opacity="0.1" stroke="#000000" stroke-width="1" x1="190" y1="433" x2="1959" y2="433"/>
<line opacity="0.1" stroke="#000000" stroke-width="1" x1="190" y1="422" x2="1959" y2="422"/>
<line opacity="0.1" stroke="#000000" stroke-width="1" x1="190" y1="412" x2="1959" y2="412"/>
<line opacity="0.1" stroke="#000000" stroke-width="1" x1="190" y1="401" x2="1959" y2="401"/>
<line opacity="0.1" stroke="#000000" stroke-width="1" x1="190" y1="390" x2="1959" y2="390"/>
<line opacity="0.1" stroke="#000000" stroke-width="1" x1="190" y1="380" x2="1959" y2="380"/>
<line opacity="0.1" stroke="#000000" stroke-width="1" x1="190" y1="369" x2="1959" y2="369"/>
<line opacity="0.1" stroke="#000000" stroke-width="1" x1="190" y1="359" x2="1959" y2="359"/>
<line opacity="0.1" stroke="#000000" stroke-width="1" x1="190" y1="348" x2="1959" y2="348"/>
<line opacity="0.1" stroke="#000000" stroke-width="1" x1="190" y1="337" x2="1959" y2="337"/>
<line opacity="0.1" stroke="#000000" stroke-width="1" x1="190" y1="327" x2="1959" y2="327"/>
<line opacity="0.1" stroke="#000000" stroke-width="1" x1="190" y1="316" x2="1959" y2="316"/>
<line opacity="0.1" stroke="#000000" stroke-width="1" x1="190" y1="306" x2="1959" y2="306"/>
<line opacity="0.1" stroke="#000000" stroke-width="1" x1="190" y1="295" x2="1959" y2="295"/>
<line opacity="0.1" stroke="#000000" stroke-width="1" x1="190" y1="284" x2="1959" y2="284"/>
<line opacity="0.1" stroke="#000000" stroke-width="1" x1="190" y1="274" x2="1959" y2="274"/>
<line opacity="0.1" stroke="#000000" stroke-width="1" x1="190" y1="263" x2="1959" y2="263"/>
<line opacity="0.1" stroke="#000000" stroke-width="1" x1="190" y1="253" x2="1959" y2="253"/>
<line opacity="0.1" stroke="#000000" stroke-width="1" x1="190" y1="242" x2="1959" y2="242"/>
<line opacity="0.1" stroke="#000000" stroke-width="1" x1="190" y1="231" x2="1959" y2="231"/>
<line opacity="0.1" stroke="#000000" stroke-width="1" x1="190" y1="221" x2="1959" y2="221"/>
<line opacity="0.1" stroke="#000000" stroke-width="1" x1="190" y1="210" x2="1959" y2="210"/>
<line opacity="0.1" stroke="#000000" stroke-width="1" x1="190" y1="199" x2="1959" y2="199"/>
<line opacity="0.1" stroke="#000000" stroke-width="1" x1="190" y1="189" x2="1959" y2="189"/>
<line opacity="0.1" stroke="#000000" stroke-width="1" x1="190" y1="178" x2="1959" y2="178"/>
<line opacity="0.1" stroke="#000000" stroke-width="1" x1="190" y1="168" x2="1959" y2="168"/>
<line opacity="0.1" stroke="#000000" stroke-width="1" x1="190" y1="157" x2="1959" y2="157"/>
<line opacity="0.1" stroke="#000000" stroke-width="1" x1="190" y1="146" x2="1959" y2="146"/>
<line opacity="0.1" stroke="#000000" stroke-width="1" x1="190" y1="136" x2="1959" y2="136"/>
<line opacity="0.1" stroke="#000000" stroke-width="1" x1="190" y1="125" x2="1959" y2="125"/>
<line opacity="0.1" stroke="#000000" stroke-width="1" x1="190" y1="115" x2="1959" y2="115"/>
<line opacity="0.1" stroke="#000000" stroke-width="1" x1="190" y1="104" x2="1959" y2="104"/>
<line opacity="0.1" stroke="#000000" stroke-width="1" x1="190" y1="93" x2="1959" y2="93"/>
<line opacity="0.1" stroke="#000000" stroke-width="1" x1="190" y1="83" x2="1959" y2="83"/>
<line opacity="0.1" stroke="#000000" stroke-width="1" x1="190" y1="72" x2="1959" y2="72"/>
<line opacity="0.1" stroke="#000000" stroke-width="1" x1="190" y1="62" x2="1959" y2="62"/>
<line opacity="0.1" stroke="#000000" stroke-width="1" x1="190" y1="51" x2="1959" y2="51"/>
<text x="40" y="470" dy="0.76em" text-anchor="middle" font-family="sans-serif" font-size="25.806451612903228" opacity="1" fill="#000000" transform="rotate(270, 40, 470)">
throughput [req/s]
</text>
<text x="1075" y="960" dy="-0.5ex" text-anchor="middle" font-family="sans-serif" font-size="25.806451612903228" opacity="1" fill="#000000">
time [s]
</text>
<line opacity="0.2" stroke="#000000" stroke-width="1" x1="190" y1="899" x2="190" y2="40"/>
<line opacity="0.2" stroke="#000000" stroke-width="1" x1="489" y1="899" x2="489" y2="40"/>
<line opacity="0.2" stroke="#000000" stroke-width="1" x1="789" y1="899" x2="789" y2="40"/>
<line opacity="0.2" stroke="#000000" stroke-width="1" x1="1089" y1="899" x2="1089" y2="40"/>
<line opacity="0.2" stroke="#000000" stroke-width="1" x1="1389" y1="899" x2="1389" y2="40"/>
<line opacity="0.2" stroke="#000000" stroke-width="1" x1="1689" y1="899" x2="1689" y2="40"/>
<line opacity="0.2" stroke="#000000" stroke-width="1" x1="190" y1="899" x2="1959" y2="899"/>
<line opacity="0.2" stroke="#000000" stroke-width="1" x1="190" y1="793" x2="1959" y2="793"/>
<line opacity="0.2" stroke="#000000" stroke-width="1" x1="190" y1="687" x2="1959" y2="687"/>
<line opacity="0.2" stroke="#000000" stroke-width="1" x1="190" y1="581" x2="1959" y2="581"/>
<line opacity="0.2" stroke="#000000" stroke-width="1" x1="190" y1="475" x2="1959" y2="475"/>
<line opacity="0.2" stroke="#000000" stroke-width="1" x1="190" y1="369" x2="1959" y2="369"/>
<line opacity="0.2" stroke="#000000" stroke-width="1" x1="190" y1="263" x2="1959" y2="263"/>
<line opacity="0.2" stroke="#000000" stroke-width="1" x1="190" y1="157" x2="1959" y2="157"/>
<line opacity="0.2" stroke="#000000" stroke-width="1" x1="190" y1="51" x2="1959" y2="51"/>
<polyline fill="none" opacity="1" stroke="#000000" stroke-width="1" points="189,40 189,899 "/>
<text x="180" y="899" dy="0.5ex" text-anchor="end" font-family="sans-serif" font-size="19.35483870967742" opacity="1" fill="#000000">
0.0
</text>
<polyline fill="none" opacity="1" stroke="#000000" stroke-width="1" points="184,899 189,899 "/>
<text x="180" y="793" dy="0.5ex" text-anchor="end" font-family="sans-serif" font-size="19.35483870967742" opacity="1" fill="#000000">
10000.0
</text>
<polyline fill="none" opacity="1" stroke="#000000" stroke-width="1" points="184,793 189,793 "/>
<text x="180" y="687" dy="0.5ex" text-anchor="end" font-family="sans-serif" font-size="19.35483870967742" opacity="1" fill="#000000">
20000.0
</text>
<polyline fill="none" opacity="1" stroke="#000000" stroke-width="1" points="184,687 189,687 "/>
<text x="180" y="581" dy="0.5ex" text-anchor="end" font-family="sans-serif" font-size="19.35483870967742" opacity="1" fill="#000000">
30000.0
</text>
<polyline fill="none" opacity="1" stroke="#000000" stroke-width="1" points="184,581 189,581 "/>
<text x="180" y="475" dy="0.5ex" text-anchor="end" font-family="sans-serif" font-size="19.35483870967742" opacity="1" fill="#000000">
40000.0
</text>
<polyline fill="none" opacity="1" stroke="#000000" stroke-width="1" points="184,475 189,475 "/>
<text x="180" y="369" dy="0.5ex" text-anchor="end" font-family="sans-serif" font-size="19.35483870967742" opacity="1" fill="#000000">
50000.0
</text>
<polyline fill="none" opacity="1" stroke="#000000" stroke-width="1" points="184,369 189,369 "/>
<text x="180" y="263" dy="0.5ex" text-anchor="end" font-family="sans-serif" font-size="19.35483870967742" opacity="1" fill="#000000">
60000.0
</text>
<polyline fill="none" opacity="1" stroke="#000000" stroke-width="1" points="184,263 189,263 "/>
<text x="180" y="157" dy="0.5ex" text-anchor="end" font-family="sans-serif" font-size="19.35483870967742" opacity="1" fill="#000000">
70000.0
</text>
<polyline fill="none" opacity="1" stroke="#000000" stroke-width="1" points="184,157 189,157 "/>
<text x="180" y="51" dy="0.5ex" text-anchor="end" font-family="sans-serif" font-size="19.35483870967742" opacity="1" fill="#000000">
80000.0
</text>
<polyline fill="none" opacity="1" stroke="#000000" stroke-width="1" points="184,51 189,51 "/>
<polyline fill="none" opacity="1" stroke="#000000" stroke-width="1" points="190,900 1959,900 "/>
<text x="190" y="910" dy="0.76em" text-anchor="middle" font-family="sans-serif" font-size="19.35483870967742" opacity="1" fill="#000000">
0.0
</text>
<polyline fill="none" opacity="1" stroke="#000000" stroke-width="1" points="190,900 190,905 "/>
<text x="489" y="910" dy="0.76em" text-anchor="middle" font-family="sans-serif" font-size="19.35483870967742" opacity="1" fill="#000000">
10.0
</text>
<polyline fill="none" opacity="1" stroke="#000000" stroke-width="1" points="489,900 489,905 "/>
<text x="789" y="910" dy="0.76em" text-anchor="middle" font-family="sans-serif" font-size="19.35483870967742" opacity="1" fill="#000000">
20.0
</text>
<polyline fill="none" opacity="1" stroke="#000000" stroke-width="1" points="789,900 789,905 "/>
<text x="1089" y="910" dy="0.76em" text-anchor="middle" font-family="sans-serif" font-size="19.35483870967742" opacity="1" fill="#000000">
30.0
</text>
<polyline fill="none" opacity="1" stroke="#000000" stroke-width="1" points="1089,900 1089,905 "/>
<text x="1389" y="910" dy="0.76em" text-anchor="middle" font-family="sans-serif" font-size="19.35483870967742" opacity="1" fill="#000000">
40.0
</text>
<polyline fill="none" opacity="1" stroke="#000000" stroke-width="1" points="1389,900 1389,905 "/>
<text x="1689" y="910" dy="0.76em" text-anchor="middle" font-family="sans-serif" font-size="19.35483870967742" opacity="1" fill="#000000">
50.0
</text>
<polyline fill="none" opacity="1" stroke="#000000" stroke-width="1" points="1689,900 1689,905 "/>
<polyline fill="none" opacity="1" stroke="#FF0000" stroke-width="3" points="190,887 220,873 249,858 280,844 309,829 339,816 370,797 399,785 430,770 459,756 490,741 520,726 550,708 579,698 609,681 639,668 669,654 699,637 729,624 759,611 789,597 819,582 849,568 879,553 909,542 939,522 969,505 999,493 1029,484 1059,466 1089,443 1119,435 1149,420 1179,428 1210,367 1239,380 1269,359 1299,347 1329,333 1359,319 1389,303 1419,290 1449,276 1479,260 1509,248 1539,231 1569,224 1599,196 1629,189 1659,172 1689,158 1719,147 1749,130 1779,114 1809,99 1839,101 1869,54 1899,58 1929,41 1959,97 "/>
<circle cx="190" cy="887" r="6" opacity="1" fill="none" stroke="#FF0000" stroke-width="1"/>
<circle cx="220" cy="873" r="6" opacity="1" fill="none" stroke="#FF0000" stroke-width="1"/>
<circle cx="249" cy="858" r="6" opacity="1" fill="none" stroke="#FF0000" stroke-width="1"/>
<circle cx="280" cy="844" r="6" opacity="1" fill="none" stroke="#FF0000" stroke-width="1"/>
<circle cx="309" cy="829" r="6" opacity="1" fill="none" stroke="#FF0000" stroke-width="1"/>
<circle cx="339" cy="816" r="6" opacity="1" fill="none" stroke="#FF0000" stroke-width="1"/>
<circle cx="370" cy="797" r="6" opacity="1" fill="none" stroke="#FF0000" stroke-width="1"/>
<circle cx="399" cy="785" r="6" opacity="1" fill="none" stroke="#FF0000" stroke-width="1"/>
<circle cx="430" cy="770" r="6" opacity="1" fill="none" stroke="#FF0000" stroke-width="1"/>
<circle cx="459" cy="756" r="6" opacity="1" fill="none" stroke="#FF0000" stroke-width="1"/>
<circle cx="490" cy="741" r="6" opacity="1" fill="none" stroke="#FF0000" stroke-width="1"/>
<circle cx="520" cy="726" r="6" opacity="1" fill="none" stroke="#FF0000" stroke-width="1"/>
<circle cx="550" cy="708" r="6" opacity="1" fill="none" stroke="#FF0000" stroke-width="1"/>
<circle cx="579" cy="698" r="6" opacity="1" fill="none" stroke="#FF0000" stroke-width="1"/>
<circle cx="609" cy="681" r="6" opacity="1" fill="none" stroke="#FF0000" stroke-width="1"/>
<circle cx="639" cy="668" r="6" opacity="1" fill="none" stroke="#FF0000" stroke-width="1"/>
<circle cx="669" cy="654" r="6" opacity="1" fill="none" stroke="#FF0000" stroke-width="1"/>
<circle cx="699" cy="637" r="6" opacity="1" fill="none" stroke="#FF0000" stroke-width="1"/>
<circle cx="729" cy="624" r="6" opacity="1" fill="none" stroke="#FF0000" stroke-width="1"/>
<circle cx="759" cy="611" r="6" opacity="1" fill="none" stroke="#FF0000" stroke-width="1"/>
<circle cx="789" cy="597" r="6" opacity="1" fill="none" stroke="#FF0000" stroke-width="1"/>
<circle cx="819" cy="582" r="6" opacity="1" fill="none" stroke="#FF0000" stroke-width="1"/>
<circle cx="849" cy="568" r="6" opacity="1" fill="none" stroke="#FF0000" stroke-width="1"/>
<circle cx="879" cy="553" r="6" opacity="1" fill="none" stroke="#FF0000" stroke-width="1"/>
<circle cx="909" cy="542" r="6" opacity="1" fill="none" stroke="#FF0000" stroke-width="1"/>
<circle cx="939" cy="522" r="6" opacity="1" fill="none" stroke="#FF0000" stroke-width="1"/>
<circle cx="969" cy="505" r="6" opacity="1" fill="none" stroke="#FF0000" stroke-width="1"/>
<circle cx="999" cy="493" r="6" opacity="1" fill="none" stroke="#FF0000" stroke-width="1"/>
<circle cx="1029" cy="484" r="6" opacity="1" fill="none" stroke="#FF0000" stroke-width="1"/>
<circle cx="1059" cy="466" r="6" opacity="1" fill="none" stroke="#FF0000" stroke-width="1"/>
<circle cx="1089" cy="443" r="6" opacity="1" fill="none" stroke="#FF0000" stroke-width="1"/>
<circle cx="1119" cy="435" r="6" opacity="1" fill="none" stroke="#FF0000" stroke-width="1"/>
<circle cx="1149" cy="420" r="6" opacity="1" fill="none" stroke="#FF0000" stroke-width="1"/>
<circle cx="1179" cy="428" r="6" opacity="1" fill="none" stroke="#FF0000" stroke-width="1"/>
<circle cx="1210" cy="367" r="6" opacity="1" fill="none" stroke="#FF0000" stroke-width="1"/>
<circle cx="1239" cy="380" r="6" opacity="1" fill="none" stroke="#FF0000" stroke-width="1"/>
<circle cx="1269" cy="359" r="6" opacity="1" fill="none" stroke="#FF0000" stroke-width="1"/>
<circle cx="1299" cy="347" r="6" opacity="1" fill="none" stroke="#FF0000" stroke-width="1"/>
<circle cx="1329" cy="333" r="6" opacity="1" fill="none" stroke="#FF0000" stroke-width="1"/>
<circle cx="1359" cy="319" r="6" opacity="1" fill="none" stroke="#FF0000" stroke-width="1"/>
<circle cx="1389" cy="303" r="6" opacity="1" fill="none" stroke="#FF0000" stroke-width="1"/>
<circle cx="1419" cy="290" r="6" opacity="1" fill="none" stroke="#FF0000" stroke-width="1"/>
<circle cx="1449" cy="276" r="6" opacity="1" fill="none" stroke="#FF0000" stroke-width="1"/>
<circle cx="1479" cy="260" r="6" opacity="1" fill="none" stroke="#FF0000" stroke-width="1"/>
<circle cx="1509" cy="248" r="6" opacity="1" fill="none" stroke="#FF0000" stroke-width="1"/>
<circle cx="1539" cy="231" r="6" opacity="1" fill="none" stroke="#FF0000" stroke-width="1"/>
<circle cx="1569" cy="224" r="6" opacity="1" fill="none" stroke="#FF0000" stroke-width="1"/>
<circle cx="1599" cy="196" r="6" opacity="1" fill="none" stroke="#FF0000" stroke-width="1"/>
<circle cx="1629" cy="189" r="6" opacity="1" fill="none" stroke="#FF0000" stroke-width="1"/>
<circle cx="1659" cy="172" r="6" opacity="1" fill="none" stroke="#FF0000" stroke-width="1"/>
<circle cx="1689" cy="158" r="6" opacity="1" fill="none" stroke="#FF0000" stroke-width="1"/>
<circle cx="1719" cy="147" r="6" opacity="1" fill="none" stroke="#FF0000" stroke-width="1"/>
<circle cx="1749" cy="130" r="6" opacity="1" fill="none" stroke="#FF0000" stroke-width="1"/>
<circle cx="1779" cy="114" r="6" opacity="1" fill="none" stroke="#FF0000" stroke-width="1"/>
<circle cx="1809" cy="99" r="6" opacity="1" fill="none" stroke="#FF0000" stroke-width="1"/>
<circle cx="1839" cy="101" r="6" opacity="1" fill="none" stroke="#FF0000" stroke-width="1"/>
<circle cx="1869" cy="54" r="6" opacity="1" fill="none" stroke="#FF0000" stroke-width="1"/>
<circle cx="1899" cy="58" r="6" opacity="1" fill="none" stroke="#FF0000" stroke-width="1"/>
<circle cx="1929" cy="41" r="6" opacity="1" fill="none" stroke="#FF0000" stroke-width="1"/>
<circle cx="1959" cy="97" r="6" opacity="1" fill="none" stroke="#FF0000" stroke-width="1"/>
<polyline fill="none" opacity="1" stroke="#0000FF" stroke-width="3" points="190,888 220,872 249,859 280,844 310,829 339,815 369,800 399,786 429,772 460,755 489,741 519,727 549,715 580,694 609,683 639,668 669,655 699,637 729,624 759,610 789,595 819,579 849,566 879,552 909,541 939,517 969,507 999,492 1029,483 1059,457 1089,449 1119,432 1149,420 1179,404 1209,390 1239,380 1269,356 1299,347 1329,370 1361,278 1389,306 1419,293 1449,278 1479,261 1509,248 1539,234 1569,221 1599,200 1629,190 1659,178 1689,156 1719,146 1749,132 1779,123 1809,97 1839,88 1869,69 1899,57 1929,40 1958,104 "/>
<circle cx="190" cy="888" r="6" opacity="1" fill="none" stroke="#0000FF" stroke-width="1"/>
<circle cx="220" cy="872" r="6" opacity="1" fill="none" stroke="#0000FF" stroke-width="1"/>
<circle cx="249" cy="859" r="6" opacity="1" fill="none" stroke="#0000FF" stroke-width="1"/>
<circle cx="280" cy="844" r="6" opacity="1" fill="none" stroke="#0000FF" stroke-width="1"/>
<circle cx="310" cy="829" r="6" opacity="1" fill="none" stroke="#0000FF" stroke-width="1"/>
<circle cx="339" cy="815" r="6" opacity="1" fill="none" stroke="#0000FF" stroke-width="1"/>
<circle cx="369" cy="800" r="6" opacity="1" fill="none" stroke="#0000FF" stroke-width="1"/>
<circle cx="399" cy="786" r="6" opacity="1" fill="none" stroke="#0000FF" stroke-width="1"/>
<circle cx="429" cy="772" r="6" opacity="1" fill="none" stroke="#0000FF" stroke-width="1"/>
<circle cx="460" cy="755" r="6" opacity="1" fill="none" stroke="#0000FF" stroke-width="1"/>
<circle cx="489" cy="741" r="6" opacity="1" fill="none" stroke="#0000FF" stroke-width="1"/>
<circle cx="519" cy="727" r="6" opacity="1" fill="none" stroke="#0000FF" stroke-width="1"/>
<circle cx="549" cy="715" r="6" opacity="1" fill="none" stroke="#0000FF" stroke-width="1"/>
<circle cx="580" cy="694" r="6" opacity="1" fill="none" stroke="#0000FF" stroke-width="1"/>
<circle cx="609" cy="683" r="6" opacity="1" fill="none" stroke="#0000FF" stroke-width="1"/>
<circle cx="639" cy="668" r="6" opacity="1" fill="none" stroke="#0000FF" stroke-width="1"/>
<circle cx="669" cy="655" r="6" opacity="1" fill="none" stroke="#0000FF" stroke-width="1"/>
<circle cx="699" cy="637" r="6" opacity="1" fill="none" stroke="#0000FF" stroke-width="1"/>
<circle cx="729" cy="624" r="6" opacity="1" fill="none" stroke="#0000FF" stroke-width="1"/>
<circle cx="759" cy="610" r="6" opacity="1" fill="none" stroke="#0000FF" stroke-width="1"/>
<circle cx="789" cy="595" r="6" opacity="1" fill="none" stroke="#0000FF" stroke-width="1"/>
<circle cx="819" cy="579" r="6" opacity="1" fill="none" stroke="#0000FF" stroke-width="1"/>
<circle cx="849" cy="566" r="6" opacity="1" fill="none" stroke="#0000FF" stroke-width="1"/>
<circle cx="879" cy="552" r="6" opacity="1" fill="none" stroke="#0000FF" stroke-width="1"/>
<circle cx="909" cy="541" r="6" opacity="1" fill="none" stroke="#0000FF" stroke-width="1"/>
<circle cx="939" cy="517" r="6" opacity="1" fill="none" stroke="#0000FF" stroke-width="1"/>
<circle cx="969" cy="507" r="6" opacity="1" fill="none" stroke="#0000FF" stroke-width="1"/>
<circle cx="999" cy="492" r="6" opacity="1" fill="none" stroke="#0000FF" stroke-width="1"/>
<circle cx="1029" cy="483" r="6" opacity="1" fill="none" stroke="#0000FF" stroke-width="1"/>
<circle cx="1059" cy="457" r="6" opacity="1" fill="none" stroke="#0000FF" stroke-width="1"/>
<circle cx="1089" cy="449" r="6" opacity="1" fill="none" stroke="#0000FF" stroke-width="1"/>
<circle cx="1119" cy="432" r="6" opacity="1" fill="none" stroke="#0000FF" stroke-width="1"/>
<circle cx="1149" cy="420" r="6" opacity="1" fill="none" stroke="#0000FF" stroke-width="1"/>
<circle cx="1179" cy="404" r="6" opacity="1" fill="none" stroke="#0000FF" stroke-width="1"/>
<circle cx="1209" cy="390" r="6" opacity="1" fill="none" stroke="#0000FF" stroke-width="1"/>
<circle cx="1239" cy="380" r="6" opacity="1" fill="none" stroke="#0000FF" stroke-width="1"/>
<circle cx="1269" cy="356" r="6" opacity="1" fill="none" stroke="#0000FF" stroke-width="1"/>
<circle cx="1299" cy="347" r="6" opacity="1" fill="none" stroke="#0000FF" stroke-width="1"/>
<circle cx="1329" cy="370" r="6" opacity="1" fill="none" stroke="#0000FF" stroke-width="1"/>
<circle cx="1361" cy="278" r="6" opacity="1" fill="none" stroke="#0000FF" stroke-width="1"/>
<circle cx="1389" cy="306" r="6" opacity="1" fill="none" stroke="#0000FF" stroke-width="1"/>
<circle cx="1419" cy="293" r="6" opacity="1" fill="none" stroke="#0000FF" stroke-width="1"/>
<circle cx="1449" cy="278" r="6" opacity="1" fill="none" stroke="#0000FF" stroke-width="1"/>
<circle cx="1479" cy="261" r="6" opacity="1" fill="none" stroke="#0000FF" stroke-width="1"/>
<circle cx="1509" cy="248" r="6" opacity="1" fill="none" stroke="#0000FF" stroke-width="1"/>
<circle cx="1539" cy="234" r="6" opacity="1" fill="none" stroke="#0000FF" stroke-width="1"/>
<circle cx="1569" cy="221" r="6" opacity="1" fill="none" stroke="#0000FF" stroke-width="1"/>
<circle cx="1599" cy="200" r="6" opacity="1" fill="none" stroke="#0000FF" stroke-width="1"/>
<circle cx="1629" cy="190" r="6" opacity="1" fill="none" stroke="#0000FF" stroke-width="1"/>
<circle cx="1659" cy="178" r="6" opacity="1" fill="none" stroke="#0000FF" stroke-width="1"/>
<circle cx="1689" cy="156" r="6" opacity="1" fill="none" stroke="#0000FF" stroke-width="1"/>
<circle cx="1719" cy="146" r="6" opacity="1" fill="none" stroke="#0000FF" stroke-width="1"/>
<circle cx="1749" cy="132" r="6" opacity="1" fill="none" stroke="#0000FF" stroke-width="1"/>
<circle cx="1779" cy="123" r="6" opacity="1" fill="none" stroke="#0000FF" stroke-width="1"/>
<circle cx="1809" cy="97" r="6" opacity="1" fill="none" stroke="#0000FF" stroke-width="1"/>
<circle cx="1839" cy="88" r="6" opacity="1" fill="none" stroke="#0000FF" stroke-width="1"/>
<circle cx="1869" cy="69" r="6" opacity="1" fill="none" stroke="#0000FF" stroke-width="1"/>
<circle cx="1899" cy="57" r="6" opacity="1" fill="none" stroke="#0000FF" stroke-width="1"/>
<circle cx="1929" cy="40" r="6" opacity="1" fill="none" stroke="#0000FF" stroke-width="1"/>
<circle cx="1958" cy="104" r="6" opacity="1" fill="none" stroke="#0000FF" stroke-width="1"/>
<rect x="1787" y="45" width="168" height="89" opacity="0.7" fill="#FFFFFF" stroke="none"/>
<rect x="1787" y="45" width="168" height="89" opacity="1" fill="none" stroke="#000000"/>
<text x="1827" y="65" dy="0.76em" text-anchor="start" font-family="sans-serif" font-size="19.35483870967742" opacity="1" fill="#000000">
throughput []
</text>
<text x="1827" y="95" dy="0.76em" text-anchor="start" font-family="sans-serif" font-size="19.35483870967742" opacity="1" fill="#000000">
throughput []
</text>
<circle cx="1807" cy="74" r="6" opacity="1" fill="none" stroke="#FF0000" stroke-width="1"/>
<circle cx="1807" cy="104" r="6" opacity="1" fill="none" stroke="#0000FF" stroke-width="1"/>
</svg>
