<svg width="2000" height="1000" viewBox="0 0 2000 1000" xmlns="http://www.w3.org/2000/svg">
<rect x="0" y="0" width="2000" height="1000" opacity="1" fill="#FFFFFF" stroke="none"/>
<line opacity="0.1" stroke="#000000" stroke-width="1" x1="190" y1="899" x2="190" y2="40"/>
<line opacity="0.1" stroke="#000000" stroke-width="1" x1="219" y1="899" x2="219" y2="40"/>
<line opacity="0.1" stroke="#000000" stroke-width="1" x1="249" y1="899" x2="249" y2="40"/>
<line opacity="0.1" stroke="#000000" stroke-width="1" x1="279" y1="899" x2="279" y2="40"/>
<line opacity="0.1" stroke="#000000" stroke-width="1" x1="309" y1="899" x2="309" y2="40"/>
<line opacity="0.1" stroke="#000000" stroke-width="1" x1="339" y1="899" x2="339" y2="40"/>
<line opacity="0.1" stroke="#000000" stroke-width="1" x1="369" y1="899" x2="369" y2="40"/>
<line opacity="0.1" stroke="#000000" stroke-width="1" x1="399" y1="899" x2="399" y2="40"/>
<line opacity="0.1" stroke="#000000" stroke-width="1" x1="429" y1="899" x2="429" y2="40"/>
<line opacity="0.1" stroke="#000000" stroke-width="1" x1="459" y1="899" x2="459" y2="40"/>
<line opacity="0.1" stroke="#000000" stroke-width="1" x1="489" y1="899" x2="489" y2="40"/>
<line opacity="0.1" stroke="#000000" stroke-width="1" x1="519" y1="899" x2="519" y2="40"/>
<line opacity="0.1" stroke="#000000" stroke-width="1" x1="549" y1="899" x2="549" y2="40"/>
<line opacity="0.1" stroke="#000000" stroke-width="1" x1="579" y1="899" x2="579" y2="40"/>
<line opacity="0.1" stroke="#000000" stroke-width="1" x1="609" y1="899" x2="609" y2="40"/>
<line opacity="0.1" stroke="#000000" stroke-width="1" x1="639" y1="899" x2="639" y2="40"/>
<line opacity="0.1" stroke="#000000" stroke-width="1" x1="669" y1="899" x2="669" y2="40"/>
<line opacity="0.1" stroke="#000000" stroke-width="1" x1="699" y1="899" x2="699" y2="40"/>
<line opacity="0.1" stroke="#000000" stroke-width="1" x1="729" y1="899" x2="729" y2="40"/>
<line opacity="0.1" stroke="#000000" stroke-width="1" x1="759" y1="899" x2="759" y2="40"/>
<line opacity="0.1" stroke="#000000" stroke-width="1" x1="789" y1="899" x2="789" y2="40"/>
<line opacity="0.1" stroke="#000000" stroke-width="1" x1="819" y1="899" x2="819" y2="40"/>
<line opacity="0.1" stroke="#000000" stroke-width="1" x1="849" y1="899" x2="849" y2="40"/>
<line opacity="0.1" stroke="#000000" stroke-width="1" x1="879" y1="899" x2="879" y2="40"/>
<line opacity="0.1" stroke="#000000" stroke-width="1" x1="909" y1="899" x2="909" y2="40"/>
<line opacity="0.1" stroke="#000000" stroke-width="1" x1="939" y1="899" x2="939" y2="40"/>
<line opacity="0.1" stroke="#000000" stroke-width="1" x1="969" y1="899" x2="969" y2="40"/>
<line opacity="0.1" stroke="#000000" stroke-width="1" x1="999" y1="899" x2="999" y2="40"/>
<line opacity="0.1" stroke="#000000" stroke-width="1" x1="1029" y1="899" x2="1029" y2="40"/>
<line opacity="0.1" stroke="#000000" stroke-width="1" x1="1059" y1="899" x2="1059" y2="40"/>
<line opacity="0.1" stroke="#000000" stroke-width="1" x1="1089" y1="899" x2="1089" y2="40"/>
<line opacity="0.1" stroke="#000000" stroke-width="1" x1="1119" y1="899" x2="1119" y2="40"/>
<line opacity="0.1" stroke="#000000" stroke-width="1" x1="1149" y1="899" x2="1149" y2="40"/>
<line opacity="0.1" stroke="#000000" stroke-width="1" x1="1179" y1="899" x2="1179" y2="40"/>
<line opacity="0.1" stroke="#000000" stroke-width="1" x1="1209" y1="899" x2="1209" y2="40"/>
<line opacity="0.1" stroke="#000000" stroke-width="1" x1="1239" y1="899" x2="1239" y2="40"/>
<line opacity="0.1" stroke="#000000" stroke-width="1" x1="1269" y1="899" x2="1269" y2="40"/>
<line opacity="0.1" stroke="#000000" stroke-width="1" x1="1299" y1="899" x2="1299" y2="40"/>
<line opacity="0.1" stroke="#000000" stroke-width="1" x1="1329" y1="899" x2="1329" y2="40"/>
<line opacity="0.1" stroke="#000000" stroke-width="1" x1="1359" y1="899" x2="1359" y2="40"/>
<line opacity="0.1" stroke="#000000" stroke-width="1" x1="1389" y1="899" x2="1389" y2="40"/>
<line opacity="0.1" stroke="#000000" stroke-width="1" x1="1419" y1="899" x2="1419" y2="40"/>
<line opacity="0.1" stroke="#000000" stroke-width="1" x1="1449" y1="899" x2="1449" y2="40"/>
<line opacity="0.1" stroke="#000000" stroke-width="1" x1="1479" y1="899" x2="1479" y2="40"/>
<line opacity="0.1" stroke="#000000" stroke-width="1" x1="1509" y1="899" x2="1509" y2="40"/>
<line opacity="0.1" stroke="#000000" stroke-width="1" x1="1539" y1="899" x2="1539" y2="40"/>
<line opacity="0.1" stroke="#000000" stroke-width="1" x1="1569" y1="899" x2="1569" y2="40"/>
<line opacity="0.1" stroke="#000000" stroke-width="1" x1="1599" y1="899" x2="1599" y2="40"/>
<line opacity="0.1" stroke="#000000" stroke-width="1" x1="1629" y1="899" x2="1629" y2="40"/>
<line opacity="0.1" stroke="#000000" stroke-width="1" x1="1659" y1="899" x2="1659" y2="40"/>
<line opacity="0.1" stroke="#000000" stroke-width="1" x1="1689" y1="899" x2="1689" y2="40"/>
<line opacity="0.1" stroke="#000000" stroke-width="1" x1="1719" y1="899" x2="1719" y2="40"/>
<line opacity="0.1" stroke="#000000" stroke-width="1" x1="1749" y1="899" x2="1749" y2="40"/>
<line opacity="0.1" stroke="#000000" stroke-width="1" x1="1779" y1="899" x2="1779" y2="40"/>
<line opacity="0.1" stroke="#000000" stroke-width="1" x1="1809" y1="899" x2="1809" y2="40"/>
<line opacity="0.1" stroke="#000000" stroke-width="1" x1="1839" y1="899" x2="1839" y2="40"/>
<line opacity="0.1" stroke="#000000" stroke-width="1" x1="1869" y1="899" x2="1869" y2="40"/>
<line opacity="0.1" stroke="#000000" stroke-width="1" x1="1898" y1="899" x2="1898" y2="40"/>
<line opacity="0.1" stroke="#000000" stroke-width="1" x1="1928" y1="899" x2="1928" y2="40"/>
<line opacity="0.1" stroke="#000000" stroke-width="1" x1="1958" y1="899" x2="1958" y2="40"/>
<line opacity="0.1" stroke="#000000" stroke-width="1" x1="190" y1="899" x2="1959" y2="899"/>
<line opacity="0.1" stroke="#000000" stroke-width="1" x1="190" y1="891" x2="1959" y2="891"/>
<line opacity="0.1" stroke="#000000" stroke-width="1" x1="190" y1="882" x2="1959" y2="882"/>
<line opacity="0.1" stroke="#000000" stroke-width="1" x1="190" y1="874" x2="1959" y2="874"/>
<line opacity="0.1" stroke="#000000" stroke-width="1" x1="190" y1="865" x2="1959" y2="865"/>
<line opacity="0.1" stroke="#000000" stroke-width="1" x1="190" y1="857" x2="1959" y2="857"/>
<line opacity="0.1" stroke="#000000" stroke-width="1" x1="190" y1="848" x2="1959" y2="848"/>
<line opacity="0.1" stroke="#000000" stroke-width="1" x1="190" y1="839" x2="1959" y2="839"/>
<line opacity="0.1" stroke="#000000" stroke-width="1" x1="190" y1="831" x2="1959" y2="831"/>
<line opacity="0.1" stroke="#000000" stroke-width="1" x1="190" y1="822" x2="1959" y2="822"/>
<line opacity="0.1" stroke="#000000" stroke-width="1" x1="190" y1="814" x2="1959" y2="814"/>
<line opacity="0.1" stroke="#000000" stroke-width="1" x1="190" y1="805" x2="1959" y2="805"/>
<line opacity="0.1" stroke="#000000" stroke-width="1" x1="190" y1="796" x2="1959" y2="796"/>
<line opacity="0.1" stroke="#000000" stroke-width="1" x1="190" y1="788" x2="1959" y2="788"/>
<line opacity="0.1" stroke="#000000" stroke-width="1" x1="190" y1="779" x2="1959" y2="779"/>
<line opacity="0.1" stroke="#000000" stroke-width="1" x1="190" y1="771" x2="1959" y2="771"/>
<line opacity="0.1" stroke="#000000" stroke-width="1" x1="190" y1="762" x2="1959" y2="762"/>
<line opacity="0.1" stroke="#000000" stroke-width="1" x1="190" y1="753" x2="1959" y2="753"/>
<line opacity="0.1" stroke="#000000" stroke-width="1" x1="190" y1="745" x2="1959" y2="745"/>
<line opacity="0.1" stroke="#000000" stroke-width="1" x1="190" y1="736" x2="1959" y2="736"/>
<line opacity="0.1" stroke="#000000" stroke-width="1" x1="190" y1="728" x2="1959" y2="728"/>
<line opacity="0.1" stroke="#000000" stroke-width="1" x1="190" y1="719" x2="1959" y2="719"/>
<line opacity="0.1" stroke="#000000" stroke-width="1" x1="190" y1="711" x2="1959" y2="711"/>
<line opacity="0.1" stroke="#000000" stroke-width="1" x1="190" y1="702" x2="1959" y2="702"/>
<line opacity="0.1" stroke="#000000" stroke-width="1" x1="190" y1="693" x2="1959" y2="693"/>
<line opacity="0.1" stroke="#000000" stroke-width="1" x1="190" y1="685" x2="1959" y2="685"/>
<line opacity="0.1" stroke="#000000" stroke-width="1" x1="190" y1="676" x2="1959" y2="676"/>
<line opacity="0.1" stroke="#000000" stroke-width="1" x1="190" y1="668" x2="1959" y2="668"/>
<line opacity="0.1" stroke="#000000" stroke-width="1" x1="190" y1="659" x2="1959" y2="659"/>
<line opacity="0.1" stroke="#000000" stroke-width="1" x1="190" y1="650" x2="1959" y2="650"/>
<line opacity="0.1" stroke="#000000" stroke-width="1" x1="190" y1="642" x2="1959" y2="642"/>
<line opacity="0.1" stroke="#000000" stroke-width="1" x1="190" y1="633" x2="1959" y2="633"/>
<line opacity="0.1" stroke="#000000" stroke-width="1" x1="190" y1="625" x2="1959" y2="625"/>
<line opacity="0.1" stroke="#000000" stroke-width="1" x1="190" y1="616" x2="1959" y2="616"/>
<line opacity="0.1" stroke="#000000" stroke-width="1" x1="190" y1="607" x2="1959" y2="607"/>
<line opacity="0.1" stroke="#000000" stroke-width="1" x1="190" y1="599" x2="1959" y2="599"/>
<line opacity="0.1" stroke="#000000" stroke-width="1" x1="190" y1="590" x2="1959" y2="590"/>
<line opacity="0.1" stroke="#000000" stroke-width="1" x1="190" y1="582" x2="1959" y2="582"/>
<line opacity="0.1" stroke="#000000" stroke-width="1" x1="190" y1="573" x2="1959" y2="573"/>
<line opacity="0.1" stroke="#000000" stroke-width="1" x1="190" y1="564" x2="1959" y2="564"/>
<line opacity="0.1" stroke="#000000" stroke-width="1" x1="190" y1="556" x2="1959" y2="556"/>
<line opacity="0.1" stroke="#000000" stroke-width="1" x1="190" y1="547" x2="1959" y2="547"/>
<line opacity="0.1" stroke="#000000" stroke-width="1" x1="190" y1="539" x2="1959" y2="539"/>
<line opacity="0.1" stroke="#000000" stroke-width="1" x1="190" y1="530" x2="1959" y2="530"/>
<line opacity="0.1" stroke="#000000" stroke-width="1" x1="190" y1="522" x2="1959" y2="522"/>
<line opacity="0.1" stroke="#000000" stroke-width="1" x1="190" y1="513" x2="1959" y2="513"/>
<line opacity="0.1" stroke="#000000" stroke-width="1" x1="190" y1="504" x2="1959" y2="504"/>
<line opacity="0.1" stroke="#000000" stroke-width="1" x1="190" y1="496" x2="1959" y2="496"/>
<line opacity="0.1" stroke="#000000" stroke-width="1" x1="190" y1="487" x2="1959" y2="487"/>
<line opacity="0.1" stroke="#000000" stroke-width="1" x1="190" y1="479" x2="1959" y2="479"/>
<line opacity="0.1" stroke="#000000" stroke-width="1" x1="190" y1="470" x2="1959" y2="470"/>
<line opacity="0.1" stroke="#000000" stroke-width="1" x1="190" y1="461" x2="1959" y2="461"/>
<line opacity="0.1" stroke="#000000" stroke-width="1" x1="190" y1="453" x2="1959" y2="453"/>
<line opacity="0.1" stroke="#000000" stroke-width="1" x1="190" y1="444" x2="1959" y2="444"/>
<line opacity="0.1" stroke="#000000" stroke-width="1" x1="190" y1="436" x2="1959" y2="436"/>
<line opacity="0.1" stroke="#000000" stroke-width="1" x1="190" y1="427" x2="1959" y2="427"/>
<line opacity="0.1" stroke="#000000" stroke-width="1" x1="190" y1="418" x2="1959" y2="418"/>
<line opacity="0.1" stroke="#000000" stroke-width="1" x1="190" y1="410" x2="1959" y2="410"/>
<line opacity="0.1" stroke="#000000" stroke-width="1" x1="190" y1="401" x2="1959" y2="401"/>
<line opacity="0.1" stroke="#000000" stroke-width="1" x1="190" y1="393" x2="1959" y2="393"/>
<line opacity="0.1" stroke="#000000" stroke-width="1" x1="190" y1="384" x2="1959" y2="384"/>
<line opacity="0.1" stroke="#000000" stroke-width="1" x1="190" y1="376" x2="1959" y2="376"/>
<line opacity="0.1" stroke="#000000" stroke-width="1" x1="190" y1="367" x2="1959" y2="367"/>
<line opacity="0.1" stroke="#000000" stroke-width="1" x1="190" y1="358" x2="1959" y2="358"/>
<line opacity="0.1" stroke="#000000" stroke-width="1" x1="190" y1="350" x2="1959" y2="350"/>
<line opacity="0.1" stroke="#000000" stroke-width="1" x1="190" y1="341" x2="1959" y2="341"/>
<line opacity="0.1" stroke="#000000" stroke-width="1" x1="190" y1="333" x2="1959" y2="333"/>
<line opacity="0.1" stroke="#000000" stroke-width="1" x1="190" y1="324" x2="1959" y2="324"/>
<line opacity="0.1" stroke="#000000" stroke-width="1" x1="190" y1="315" x2="1959" y2="315"/>
<line opacity="0.1" stroke="#000000" stroke-width="1" x1="190" y1="307" x2="1959" y2="307"/>
<line opacity="0.1" stroke="#000000" stroke-width="1" x1="190" y1="298" x2="1959" y2="298"/>
<line opacity="0.1" stroke="#000000" stroke-width="1" x1="190" y1="290" x2="1959" y2="290"/>
<line opacity="0.1" stroke="#000000" stroke-width="1" x1="190" y1="281" x2="1959" y2="281"/>
<line opacity="0.1" stroke="#000000" stroke-width="1" x1="190" y1="272" x2="1959" y2="272"/>
<line opacity="0.1" stroke="#000000" stroke-width="1" x1="190" y1="264" x2="1959" y2="264"/>
<line opacity="0.1" stroke="#000000" stroke-width="1" x1="190" y1="255" x2="1959" y2="255"/>
<line opacity="0.1" stroke="#000000" stroke-width="1" x1="190" y1="247" x2="1959" y2="247"/>
<line opacity="0.1" stroke="#000000" stroke-width="1" x1="190" y1="238" x2="1959" y2="238"/>
<line opacity="0.1" stroke="#000000" stroke-width="1" x1="190" y1="229" x2="1959" y2="229"/>
<line opacity="0.1" stroke="#000000" stroke-width="1" x1="190" y1="221" x2="1959" y2="221"/>
<line opacity="0.1" stroke="#000000" stroke-width="1" x1="190" y1="212" x2="1959" y2="212"/>
<line opacity="0.1" stroke="#000000" stroke-width="1" x1="190" y1="204" x2="1959" y2="204"/>
<line opacity="0.1" stroke="#000000" stroke-width="1" x1="190" y1="195" x2="1959" y2="195"/>
<line opacity="0.1" stroke="#000000" stroke-width="1" x1="190" y1="187" x2="1959" y2="187"/>
<line opacity="0.1" stroke="#000000" stroke-width="1" x1="190" y1="178" x2="1959" y2="178"/>
<line opacity="0.1" stroke="#000000" stroke-width="1" x1="190" y1="169" x2="1959" y2="169"/>
<line opacity="0.1" stroke="#000000" stroke-width="1" x1="190" y1="161" x2="1959" y2="161"/>
<line opacity="0.1" stroke="#000000" stroke-width="1" x1="190" y1="152" x2="1959" y2="152"/>
<line opacity="0.1" stroke="#000000" stroke-width="1" x1="190" y1="144" x2="1959" y2="144"/>
<line opacity="0.1" stroke="#000000" stroke-width="1" x1="190" y1="135" x2="1959" y2="135"/>
<line opacity="0.1" stroke="#000000" stroke-width="1" x1="190" y1="126" x2="1959" y2="126"/>
<line opacity="0.1" stroke="#000000" stroke-width="1" x1="190" y1="118" x2="1959" y2="118"/>
<line opacity="0.1" stroke="#000000" stroke-width="1" x1="190" y1="109" x2="1959" y2="109"/>
<line opacity="0.1" stroke="#000000" stroke-width="1" x1="190" y1="101" x2="1959" y2="101"/>
<line opacity="0.1" stroke="#000000" stroke-width="1" x1="190" y1="92" x2="1959" y2="92"/>
<line opacity="0.1" stroke="#000000" stroke-width="1" x1="190" y1="83" x2="1959" y2="83"/>
<line opacity="0.1" stroke="#000000" stroke-width="1" x1="190" y1="75" x2="1959" y2="75"/>
<line opacity="0.1" stroke="#000000" stroke-width="1" x1="190" y1="66" x2="1959" y2="66"/>
<line opacity="0.1" stroke="#000000" stroke-width="1" x1="190" y1="58" x2="1959" y2="58"/>
<line opacity="0.1" stroke="#000000" stroke-width="1" x1="190" y1="49" x2="1959" y2="49"/>
<text x="40" y="470" dy="0.76em" text-anchor="middle" font-family="sans-serif" font-size="25.806451612903228" opacity="1" fill="#000000" transform="rotate(270, 40, 470)">
success rate [%]
</text>
<text x="1075" y="960" dy="-0.5ex" text-anchor="middle" font-family="sans-serif" font-size="25.806451612903228" opacity="1" fill="#000000">
time [s]
</text>
<line opacity="0.2" stroke="#000000" stroke-width="1" x1="190" y1="899" x2="190" y2="40"/>
<line opacity="0.2" stroke="#000000" stroke-width="1" x1="489" y1="899" x2="489" y2="40"/>
<line opacity="0.2" stroke="#000000" stroke-width="1" x1="789" y1="899" x2="789" y2="40"/>
<line opacity="0.2" stroke="#000000" stroke-width="1" x1="1089" y1="899" x2="1089" y2="40"/>
<line opacity="0.2" stroke="#000000" stroke-width="1" x1="1389" y1="899" x2="1389" y2="40"/>
<line opacity="0.2" stroke="#000000" stroke-width="1" x1="1689" y1="899" x2="1689" y2="40"/>
<line opacity="0.2" stroke="#000000" stroke-width="1" x1="190" y1="899" x2="1959" y2="899"/>
<line opacity="0.2" stroke="#000000" stroke-width="1" x1="190" y1="814" x2="1959" y2="814"/>
<line opacity="0.2" stroke="#000000" stroke-width="1" x1="190" y1="728" x2="1959" y2="728"/>
<line opacity="0.2" stroke="#000000" stroke-width="1" x1="190" y1="642" x2="1959" y2="642"/>
<line opacity="0.2" stroke="#000000" stroke-width="1" x1="190" y1="556" x2="1959" y2="556"/>
<line opacity="0.2" stroke="#000000" stroke-width="1" x1="190" y1="470" x2="1959" y2="470"/>
<line opacity="0.2" stroke="#000000" stroke-width="1" x1="190" y1="384" x2="1959" y2="384"/>
<line opacity="0.2" stroke="#000000" stroke-width="1" x1="190" y1="298" x2="1959" y2="298"/>
<line opacity="0.2" stroke="#000000" stroke-width="1" x1="190" y1="212" x2="1959" y2="212"/>
<line opacity="0.2" stroke="#000000" stroke-width="1" x1="190" y1="126" x2="1959" y2="126"/>
<line opacity="0.2" stroke="#000000" stroke-width="1" x1="190" y1="40" x2="1959" y2="40"/>
<polyline fill="none" opacity="1" stroke="#000000" stroke-width="1" points="189,40 189,899 "/>
<text x="180" y="899" dy="0.5ex" text-anchor="end" font-family="sans-serif" font-size="19.35483870967742" opacity="1" fill="#000000">
0.0
</text>
<polyline fill="none" opacity="1" stroke="#000000" stroke-width="1" points="184,899 189,899 "/>
<text x="180" y="814" dy="0.5ex" text-anchor="end" font-family="sans-serif" font-size="19.35483870967742" opacity="1" fill="#000000">
0.1
</text>
<polyline fill="none" opacity="1" stroke="#000000" stroke-width="1" points="184,814 189,814 "/>
<text x="180" y="728" dy="0.5ex" text-anchor="end" font-family="sans-serif" font-size="19.35483870967742" opacity="1" fill="#000000">
0.2
</text>
<polyline fill="none" opacity="1" stroke="#000000" stroke-width="1" points="184,728 189,728 "/>
<text x="180" y="642" dy="0.5ex" text-anchor="end" font-family="sans-serif" font-size="19.35483870967742" opacity="1" fill="#000000">
0.3
</text>
<polyline fill="none" opacity="1" stroke="#000000" stroke-width="1" points="184,642 189,642 "/>
<text x="180" y="556" dy="0.5ex" text-anchor="end" font-family="sans-serif" font-size="19.35483870967742" opacity="1" fill="#000000">
0.4
</text>
<polyline fill="none" opacity="1" stroke="#000000" stroke-width="1" points="184,556 189,556 "/>
<text x="180" y="470" dy="0.5ex" text-anchor="end" font-family="sans-serif" font-size="19.35483870967742" opacity="1" fill="#000000">
0.5
</text>
<polyline fill="none" opacity="1" stroke="#000000" stroke-width="1" points="184,470 189,470 "/>
<text x="180" y="384" dy="0.5ex" text-anchor="end" font-family="sans-serif" font-size="19.35483870967742" opacity="1" fill="#000000">
0.6
</text>
<polyline fill="none" opacity="1" stroke="#000000" stroke-width="1" points="184,384 189,384 "/>
<text x="180" y="298" dy="0.5ex" text-anchor="end" font-family="sans-serif" font-size="19.35483870967742" opacity="1" fill="#000000">
0.7
</text>
<polyline fill="none" opacity="1" stroke="#000000" stroke-width="1" points="184,298 189,298 "/>
<text x="180" y="212" dy="0.5ex" text-anchor="end" font-family="sans-serif" font-size="19.35483870967742" opacity="1" fill="#000000">
0.8
</text>
<polyline fill="none" opacity="1" stroke="#000000" stroke-width="1" points="184,212 189,212 "/>
<text x="180" y="126" dy="0.5ex" text-anchor="end" font-family="sans-serif" font-size="19.35483870967742" opacity="1" fill="#000000">
0.9
</text>
<polyline fill="none" opacity="1" stroke="#000000" stroke-width="1" points="184,126 189,126 "/>
<text x="180" y="40" dy="0.5ex" text-anchor="end" font-family="sans-serif" font-size="19.35483870967742" opacity="1" fill="#000000">
1.0
</text>
<polyline fill="none" opacity="1" stroke="#000000" stroke-width="1" points="184,40 189,40 "/>
<polyline fill="none" opacity="1" stroke="#000000" stroke-width="1" points="190,900 1959,900 "/>
<text x="190" y="910" dy="0.76em" text-anchor="middle" font-family="sans-serif" font-size="19.35483870967742" opacity="1" fill="#000000">
0.0
</text>
<polyline fill="none" opacity="1" stroke="#000000" stroke-width="1" points="190,900 190,905 "/>
<text x="489" y="910" dy="0.76em" text-anchor="middle" font-family="sans-serif" font-size="19.35483870967742" opacity="1" fill="#000000">
10.0
</text>
<polyline fill="none" opacity="1" stroke="#000000" stroke-width="1" points="489,900 489,905 "/>
<text x="789" y="910" dy="0.76em" text-anchor="middle" font-family="sans-serif" font-size="19.35483870967742" opacity="1" fill="#000000">
20.0
</text>
<polyline fill="none" opacity="1" stroke="#000000" stroke-width="1" points="789,900 789,905 "/>
<text x="1089" y="910" dy="0.76em" text-anchor="middle" font-family="sans-serif" font-size="19.35483870967742" opacity="1" fill="#000000">
30.0
</text>
<polyline fill="none" opacity="1" stroke="#000000" stroke-width="1" points="1089,900 1089,905 "/>
<text x="1389" y="910" dy="0.76em" text-anchor="middle" font-family="sans-serif" font-size="19.35483870967742" opacity="1" fill="#000000">
40.0
</text>
<polyline fill="none" opacity="1" stroke="#000000" stroke-width="1" points="1389,900 1389,905 "/>
<text x="1689" y="910" dy="0.76em" text-anchor="middle" font-family="sans-serif" font-size="19.35483870967742" opacity="1" fill="#000000">
50.0
</text>
<polyline fill="none" opacity="1" stroke="#000000" stroke-width="1" points="1689,900 1689,905 "/>
<polyline fill="none" opacity="1" stroke="#FF0000" stroke-width="3" points="190,40 220,40 249,40 280,40 309,40 339,40 370,40 399,40 430,40 459,40 490,40 520,40 550,40 579,40 609,40 639,40 669,40 699,40 729,40 759,40 789,40 819,40 849,40 879,40 909,40 939,40 969,40 999,40 1029,40 1059,40 1089,40 1119,40 1149,40 1179,40 1210,40 1239,40 1269,40 1299,40 1329,40 1359,40 1389,40 1419,40 1449,40 1479,40 1509,40 1539,40 1569,40 1599,40 1629,40 1659,40 1689,40 1719,40 1749,40 1779,40 1809,40 1839,40 1869,40 1899,40 1929,40 1959,40 "/>
<circle cx="190" cy="40" r="6" opacity="1" fill="none" stroke="#FF0000" stroke-width="1"/>
<circle cx="220" cy="40" r="6" opacity="1" fill="none" stroke="#FF0000" stroke-width="1"/>
<circle cx="249" cy="40" r="6" opacity="1" fill="none" stroke="#FF0000" stroke-width="1"/>
<circle cx="280" cy="40" r="6" opacity="1" fill="none" stroke="#FF0000" stroke-width="1"/>
<circle cx="309" cy="40" r="6" opacity="1" fill="none" stroke="#FF0000" stroke-width="1"/>
<circle cx="339" cy="40" r="6" opacity="1" fill="none" stroke="#FF0000" stroke-width="1"/>
<circle cx="370" cy="40" r="6" opacity="1" fill="none" stroke="#FF0000" stroke-width="1"/>
<circle cx="399" cy="40" r="6" opacity="1" fill="none" stroke="#FF0000" stroke-width="1"/>
<circle cx="430" cy="40" r="6" opacity="1" fill="none" stroke="#FF0000" stroke-width="1"/>
<circle cx="459" cy="40" r="6" opacity="1" fill="none" stroke="#FF0000" stroke-width="1"/>
<circle cx="490" cy="40" r="6" opacity="1" fill="none" stroke="#FF0000" stroke-width="1"/>
<circle cx="520" cy="40" r="6" opacity="1" fill="none" stroke="#FF0000" stroke-width="1"/>
<circle cx="550" cy="40" r="6" opacity="1" fill="none" stroke="#FF0000" stroke-width="1"/>
<circle cx="579" cy="40" r="6" opacity="1" fill="none" stroke="#FF0000" stroke-width="1"/>
<circle cx="609" cy="40" r="6" opacity="1" fill="none" stroke="#FF0000" stroke-width="1"/>
<circle cx="639" cy="40" r="6" opacity="1" fill="none" stroke="#FF0000" stroke-width="1"/>
<circle cx="669" cy="40" r="6" opacity="1" fill="none" stroke="#FF0000" stroke-width="1"/>
<circle cx="699" cy="40" r="6" opacity="1" fill="none" stroke="#FF0000" stroke-width="1"/>
<circle cx="729" cy="40" r="6" opacity="1" fill="none" stroke="#FF0000" stroke-width="1"/>
<circle cx="759" cy="40" r="6" opacity="1" fill="none" stroke="#FF0000" stroke-width="1"/>
<circle cx="789" cy="40" r="6" opacity="1" fill="none" stroke="#FF0000" stroke-width="1"/>
<circle cx="819" cy="40" r="6" opacity="1" fill="none" stroke="#FF0000" stroke-width="1"/>
<circle cx="849" cy="40" r="6" opacity="1" fill="none" stroke="#FF0000" stroke-width="1"/>
<circle cx="879" cy="40" r="6" opacity="1" fill="none" stroke="#FF0000" stroke-width="1"/>
<circle cx="909" cy="40" r="6" opacity="1" fill="none" stroke="#FF0000" stroke-width="1"/>
<circle cx="939" cy="40" r="6" opacity="1" fill="none" stroke="#FF0000" stroke-width="1"/>
<circle cx="969" cy="40" r="6" opacity="1" fill="none" stroke="#FF0000" stroke-width="1"/>
<circle cx="999" cy="40" r="6" opacity="1" fill="none" stroke="#FF0000" stroke-width="1"/>
<circle cx="1029" cy="40" r="6" opacity="1" fill="none" stroke="#FF0000" stroke-width="1"/>
<circle cx="1059" cy="40" r="6" opacity="1" fill="none" stroke="#FF0000" stroke-width="1"/>
<circle cx="1089" cy="40" r="6" opacity="1" fill="none" stroke="#FF0000" stroke-width="1"/>
<circle cx="1119" cy="40" r="6" opacity="1" fill="none" stroke="#FF0000" stroke-width="1"/>
<circle cx="1149" cy="40" r="6" opacity="1" fill="none" stroke="#FF0000" stroke-width="1"/>
<circle cx="1179" cy="40" r="6" opacity="1" fill="none" stroke="#FF0000" stroke-width="1"/>
<circle cx="1210" cy="40" r="6" opacity="1" fill="none" stroke="#FF0000" stroke-width="1"/>
<circle cx="1239" cy="40" r="6" opacity="1" fill="none" stroke="#FF0000" stroke-width="1"/>
<circle cx="1269" cy="40" r="6" opacity="1" fill="none" stroke="#FF0000" stroke-width="1"/>
<circle cx="1299" cy="40" r="6" opacity="1" fill="none" stroke="#FF0000" stroke-width="1"/>
<circle cx="1329" cy="40" r="6" opacity="1" fill="none" stroke="#FF0000" stroke-width="1"/>
<circle cx="1359" cy="40" r="6" opacity="1" fill="none" stroke="#FF0000" stroke-width="1"/>
<circle cx="1389" cy="40" r="6" opacity="1" fill="none" stroke="#FF0000" stroke-width="1"/>
<circle cx="1419" cy="40" r="6" opacity="1" fill="none" stroke="#FF0000" stroke-width="1"/>
<circle cx="1449" cy="40" r="6" opacity="1" fill="none" stroke="#FF0000" stroke-width="1"/>
<circle cx="1479" cy="40" r="6" opacity="1" fill="none" stroke="#FF0000" stroke-width="1"/>
<circle cx="1509" cy="40" r="6" opacity="1" fill="none" stroke="#FF0000" stroke-width="1"/>
<circle cx="1539" cy="40" r="6" opacity="1" fill="none" stroke="#FF0000" stroke-width="1"/>
<circle cx="1569" cy="40" r="6" opacity="1" fill="none" stroke="#FF0000" stroke-width="1"/>
<circle cx="1599" cy="40" r="6" opacity="1" fill="none" stroke="#FF0000" stroke-width="1"/>
<circle cx="1629" cy="40" r="6" opacity="1" fill="none" stroke="#FF0000" stroke-width="1"/>
<circle cx="1659" cy="40" r="6" opacity="1" fill="none" stroke="#FF0000" stroke-width="1"/>
<circle cx="1689" cy="40" r="6" opacity="1" fill="none" stroke="#FF0000" stroke-width="1"/>
<circle cx="1719" cy="40" r="6" opacity="1" fill="none" stroke="#FF0000" stroke-width="1"/>
<circle cx="1749" cy="40" r="6" opacity="1" fill="none" stroke="#FF0000" stroke-width="1"/>
<circle cx="1779" cy="40" r="6" opacity="1" fill="none" stroke="#FF0000" stroke-width="1"/>
<circle cx="1809" cy="40" r="6" opacity="1" fill="none" stroke="#FF0000" stroke-width="1"/>
<circle cx="1839" cy="40" r="6" opacity="1" fill="none" stroke="#FF0000" stroke-width="1"/>
<circle cx="1869" cy="40" r="6" opacity="1" fill="none" stroke="#FF0000" stroke-width="1"/>
<circle cx="1899" cy="40" r="6" opacity="1" fill="none" stroke="#FF0000" stroke-width="1"/>
<circle cx="1929" cy="40" r="6" opacity="1" fill="none" stroke="#FF0000" stroke-width="1"/>
<circle cx="1959" cy="40" r="6" opacity="1" fill="none" stroke="#FF0000" stroke-width="1"/>
<polyline fill="none" opacity="1" stroke="#0000FF" stroke-width="3" points="190,40 220,40 249,40 280,40 310,40 339,40 369,40 399,40 429,40 460,40 489,40 519,40 549,40 580,40 609,40 639,40 669,40 699,40 729,40 759,40 789,40 819,40 849,40 879,40 909,40 939,40 969,40 999,40 1029,40 1059,40 1089,40 1119,40 1149,40 1179,40 1209,40 1239,40 1269,40 1299,40 1329,40 1361,40 1389,40 1419,40 1449,40 1479,40 1509,40 1539,40 1569,40 1599,40 1629,40 1659,40 1689,40 1719,40 1749,40 1779,40 1809,40 1839,40 1869,40 1899,40 1929,40 1958,40 "/>
<circle cx="190" cy="40" r="6" opacity="1" fill="none" stroke="#0000FF" stroke-width="1"/>
<circle cx="220" cy="40" r="6" opacity="1" fill="none" stroke="#0000FF" stroke-width="1"/>
<circle cx="249" cy="40" r="6" opacity="1" fill="none" stroke="#0000FF" stroke-width="1"/>
<circle cx="280" cy="40" r="6" opacity="1" fill="none" stroke="#0000FF" stroke-width="1"/>
<circle cx="310" cy="40" r="6" opacity="1" fill="none" stroke="#0000FF" stroke-width="1"/>
<circle cx="339" cy="40" r="6" opacity="1" fill="none" stroke="#0000FF" stroke-width="1"/>
<circle cx="369" cy="40" r="6" opacity="1" fill="none" stroke="#0000FF" stroke-width="1"/>
<circle cx="399" cy="40" r="6" opacity="1" fill="none" stroke="#0000FF" stroke-width="1"/>
<circle cx="429" cy="40" r="6" opacity="1" fill="none" stroke="#0000FF" stroke-width="1"/>
<circle cx="460" cy="40" r="6" opacity="1" fill="none" stroke="#0000FF" stroke-width="1"/>
<circle cx="489" cy="40" r="6" opacity="1" fill="none" stroke="#0000FF" stroke-width="1"/>
<circle cx="519" cy="40" r="6" opacity="1" fill="none" stroke="#0000FF" stroke-width="1"/>
<circle cx="549" cy="40" r="6" opacity="1" fill="none" stroke="#0000FF" stroke-width="1"/>
<circle cx="580" cy="40" r="6" opacity="1" fill="none" stroke="#0000FF" stroke-width="1"/>
<circle cx="609" cy="40" r="6" opacity="1" fill="none" stroke="#0000FF" stroke-width="1"/>
<circle cx="639" cy="40" r="6" opacity="1" fill="none" stroke="#0000FF" stroke-width="1"/>
<circle cx="669" cy="40" r="6" opacity="1" fill="none" stroke="#0000FF" stroke-width="1"/>
<circle cx="699" cy="40" r="6" opacity="1" fill="none" stroke="#0000FF" stroke-width="1"/>
<circle cx="729" cy="40" r="6" opacity="1" fill="none" stroke="#0000FF" stroke-width="1"/>
<circle cx="759" cy="40" r="6" opacity="1" fill="none" stroke="#0000FF" stroke-width="1"/>
<circle cx="789" cy="40" r="6" opacity="1" fill="none" stroke="#0000FF" stroke-width="1"/>
<circle cx="819" cy="40" r="6" opacity="1" fill="none" stroke="#0000FF" stroke-width="1"/>
<circle cx="849" cy="40" r="6" opacity="1" fill="none" stroke="#0000FF" stroke-width="1"/>
<circle cx="879" cy="40" r="6" opacity="1" fill="none" stroke="#0000FF" stroke-width="1"/>
<circle cx="909" cy="40" r="6" opacity="1" fill="none" stroke="#0000FF" stroke-width="1"/>
<circle cx="939" cy="40" r="6" opacity="1" fill="none" stroke="#0000FF" stroke-width="1"/>
<circle cx="969" cy="40" r="6" opacity="1" fill="none" stroke="#0000FF" stroke-width="1"/>
<circle cx="999" cy="40" r="6" opacity="1" fill="none" stroke="#0000FF" stroke-width="1"/>
<circle cx="1029" cy="40" r="6" opacity="1" fill="none" stroke="#0000FF" stroke-width="1"/>
<circle cx="1059" cy="40" r="6" opacity="1" fill="none" stroke="#0000FF" stroke-width="1"/>
<circle cx="1089" cy="40" r="6" opacity="1" fill="none" stroke="#0000FF" stroke-width="1"/>
<circle cx="1119" cy="40" r="6" opacity="1" fill="none" stroke="#0000FF" stroke-width="1"/>
<circle cx="1149" cy="40" r="6" opacity="1" fill="none" stroke="#0000FF" stroke-width="1"/>
<circle cx="1179" cy="40" r="6" opacity="1" fill="none" stroke="#0000FF" stroke-width="1"/>
<circle cx="1209" cy="40" r="6" opacity="1" fill="none" stroke="#0000FF" stroke-width="1"/>
<circle cx="1239" cy="40" r="6" opacity="1" fill="none" stroke="#0000FF" stroke-width="1"/>
<circle cx="1269" cy="40" r="6" opacity="1" fill="none" stroke="#0000FF" stroke-width="1"/>
<circle cx="1299" cy="40" r="6" opacity="1" fill="none" stroke="#0000FF" stroke-width="1"/>
<circle cx="1329" cy="40" r="6" opacity="1" fill="none" stroke="#0000FF" stroke-width="1"/>
<circle cx="1361" cy="40" r="6" opacity="1" fill="none" stroke="#0000FF" stroke-width="1"/>
<circle cx="1389" cy="40" r="6" opacity="1" fill="none" stroke="#0000FF" stroke-width="1"/>
<circle cx="1419" cy="40" r="6" opacity="1" fill="none" stroke="#0000FF" stroke-width="1"/>
<circle cx="1449" cy="40" r="6" opacity="1" fill="none" stroke="#0000FF" stroke-width="1"/>
<circle cx="1479" cy="40" r="6" opacity="1" fill="none" stroke="#0000FF" stroke-width="1"/>
<circle cx="1509" cy="40" r="6" opacity="1" fill="none" stroke="#0000FF" stroke-width="1"/>
<circle cx="1539" cy="40" r="6" opacity="1" fill="none" stroke="#0000FF" stroke-width="1"/>
<circle cx="1569" cy="40" r="6" opacity="1" fill="none" stroke="#0000FF" stroke-width="1"/>
<circle cx="1599" cy="40" r="6" opacity="1" fill="none" stroke="#0000FF" stroke-width="1"/>
<circle cx="1629" cy="40" r="6" opacity="1" fill="none" stroke="#0000FF" stroke-width="1"/>
<circle cx="1659" cy="40" r="6" opacity="1" fill="none" stroke="#0000FF" stroke-width="1"/>
<circle cx="1689" cy="40" r="6" opacity="1" fill="none" stroke="#0000FF" stroke-width="1"/>
<circle cx="1719" cy="40" r="6" opacity="1" fill="none" stroke="#0000FF" stroke-width="1"/>
<circle cx="1749" cy="40" r="6" opacity="1" fill="none" stroke="#0000FF" stroke-width="1"/>
<circle cx="1779" cy="40" r="6" opacity="1" fill="none" stroke="#0000FF" stroke-width="1"/>
<circle cx="1809" cy="40" r="6" opacity="1" fill="none" stroke="#0000FF" stroke-width="1"/>
<circle cx="1839" cy="40" r="6" opacity="1" fill="none" stroke="#0000FF" stroke-width="1"/>
<circle cx="1869" cy="40" r="6" opacity="1" fill="none" stroke="#0000FF" stroke-width="1"/>
<circle cx="1899" cy="40" r="6" opacity="1" fill="none" stroke="#0000FF" stroke-width="1"/>
<circle cx="1929" cy="40" r="6" opacity="1" fill="none" stroke="#0000FF" stroke-width="1"/>
<circle cx="1958" cy="40" r="6" opacity="1" fill="none" stroke="#0000FF" stroke-width="1"/>
<rect x="1765" y="45" width="190" height="89" opacity="0.7" fill="#FFFFFF" stroke="none"/>
<rect x="1765" y="45" width="190" height="89" opacity="1" fill="none" stroke="#000000"/>
<text x="1805" y="65" dy="0.76em" text-anchor="start" font-family="sans-serif" font-size="19.35483870967742" opacity="1" fill="#000000">
success_rate []
</text>
<text x="1805" y="95" dy="0.76em" text-anchor="start" font-family="sans-serif" font-size="19.35483870967742" opacity="1" fill="#000000">
success_rate []
</text>
<circle cx="1785" cy="74" r="6" opacity="1" fill="none" stroke="#FF0000" stroke-width="1"/>
<circle cx="1785" cy="104" r="6" opacity="1" fill="none" stroke="#0000FF" stroke-width="1"/>
</svg>
